<?xml version="1.0" encoding="UTF-8" standalone="no"?>
<!-- Created with Inkscape (http://www.inkscape.org/) -->

<svg
   xmlns:dc="http://purl.org/dc/elements/1.1/"
   xmlns:cc="http://creativecommons.org/ns#"
   xmlns:rdf="http://www.w3.org/1999/02/22-rdf-syntax-ns#"
   xmlns:svg="http://www.w3.org/2000/svg"
   xmlns="http://www.w3.org/2000/svg"
   xmlns:xlink="http://www.w3.org/1999/xlink"
   xmlns:sodipodi="http://sodipodi.sourceforge.net/DTD/sodipodi-0.dtd"
   xmlns:inkscape="http://www.inkscape.org/namespaces/inkscape"
   width="1000"
   height="613.71503"
   viewBox="0 0 1000 613.71502"
   id="svg3384"
   version="1.1"
   inkscape:version="0.91 r13725"
   sodipodi:docname="nerd_caso5.svg"
   inkscape:export-filename="nerd_caso5.png"
   inkscape:export-xdpi="150.21001"
   inkscape:export-ydpi="150.21001">
  <title
     id="title3500">NERD Caso 5</title>
  <defs
     id="defs3386">
    <linearGradient
       inkscape:collect="always"
       id="linearGradient17229">
      <stop
         style="stop-color:#299129;stop-opacity:0.0627451"
         offset="0"
         id="stop17231" />
      <stop
         id="stop17233"
         offset="0.05964312"
         style="stop-color:#299129;stop-opacity:0.82738096" />
      <stop
         id="stop17235"
         offset="0.11606061"
         style="stop-color:#299124;stop-opacity:0.21428572" />
      <stop
         id="stop17237"
         offset="0.19091411"
         style="stop-color:#299129;stop-opacity:0" />
      <stop
         style="stop-color:#299129;stop-opacity:0.72156864"
         offset="0.24299999"
         id="stop17239" />
      <stop
         style="stop-color:#299129;stop-opacity:0.35714287"
         offset="0.27063692"
         id="stop17241" />
      <stop
         id="stop17243"
         offset="0.32824624"
         style="stop-color:#299129;stop-opacity:0.0952381" />
      <stop
         style="stop-color:#299129;stop-opacity:0.32941176;"
         offset="0.38998204"
         id="stop17245" />
      <stop
         id="stop17247"
         offset="0.42483661"
         style="stop-color:#299129;stop-opacity:0.93023258" />
      <stop
         style="stop-color:#299129;stop-opacity:0.63953489"
         offset="0.49033648"
         id="stop17249" />
      <stop
         id="stop17251"
         offset="0.6252172"
         style="stop-color:#299129;stop-opacity:0" />
      <stop
         id="stop17253"
         offset="0.72549021"
         style="stop-color:#299129;stop-opacity:0.74509805" />
      <stop
         style="stop-color:#299129;stop-opacity:0.06547619"
         offset="0.77538729"
         id="stop17255" />
      <stop
         id="stop17257"
         offset="0.84800506"
         style="stop-color:#299129;stop-opacity:0.20833333" />
      <stop
         id="stop17259"
         offset="0.90187573"
         style="stop-color:#299129;stop-opacity:0.78039217" />
      <stop
         style="stop-color:#299129;stop-opacity:0.85490197"
         offset="1"
         id="stop17261" />
    </linearGradient>
    <linearGradient
       id="linearGradient17191"
       inkscape:collect="always">
      <stop
         id="stop17193"
         offset="0"
         style="stop-color:#299129;stop-opacity:0.50588238" />
      <stop
         style="stop-color:#299129;stop-opacity:0.50196081"
         offset="0.04386208"
         id="stop17195" />
      <stop
         style="stop-color:#299129;stop-opacity:0"
         offset="0.0902371"
         id="stop17197" />
      <stop
         style="stop-color:#299129;stop-opacity:0.50196081"
         offset="0.15241259"
         id="stop17199" />
      <stop
         id="stop17201"
         offset="0.22556382"
         style="stop-color:#299129;stop-opacity:0.08333334" />
      <stop
         id="stop17203"
         offset="0.26021567"
         style="stop-color:#299129;stop-opacity:0" />
      <stop
         id="stop17205"
         offset="0.3296909"
         style="stop-color:#299129;stop-opacity:0.51764709" />
      <stop
         style="stop-color:#299129;stop-opacity:0.15476191"
         offset="0.38563183"
         id="stop17207" />
      <stop
         id="stop17209"
         offset="0.4519062"
         style="stop-color:#299129;stop-opacity:0.66860467" />
      <stop
         style="stop-color:#299129;stop-opacity:0.83720928"
         offset="0.50948036"
         id="stop17211" />
      <stop
         id="stop17213"
         offset="0.58732516"
         style="stop-color:#299129;stop-opacity:0" />
      <stop
         style="stop-color:#299129;stop-opacity:0.6156863"
         offset="0.65685946"
         id="stop17215" />
      <stop
         style="stop-color:#299129;stop-opacity:0.27380952"
         offset="0.69966668"
         id="stop17217" />
      <stop
         id="stop17219"
         offset="0.74230772"
         style="stop-color:#299129;stop-opacity:0.58823529;" />
      <stop
         id="stop17221"
         offset="0.82559967"
         style="stop-color:#299129;stop-opacity:0.93023258" />
      <stop
         style="stop-color:#299129;stop-opacity:0.21428572"
         offset="0.85441124"
         id="stop17223" />
      <stop
         style="stop-color:#299129;stop-opacity:0"
         offset="0.90187573"
         id="stop17225" />
      <stop
         id="stop17227"
         offset="1"
         style="stop-color:#299129;stop-opacity:0.80392158" />
    </linearGradient>
    <linearGradient
       id="linearGradient4863"
       inkscape:collect="always">
      <stop
         id="stop4865"
         offset="0"
         style="stop-color:#299129;stop-opacity:0.0627451" />
      <stop
         style="stop-color:#299129;stop-opacity:0.50196081"
         offset="0.05964312"
         id="stop4867" />
      <stop
         style="stop-color:#299124;stop-opacity:0.43921569"
         offset="0.11606061"
         id="stop4869" />
      <stop
         style="stop-color:#299129;stop-opacity:0"
         offset="0.20692889"
         id="stop4871" />
      <stop
         id="stop4873"
         offset="0.24299999"
         style="stop-color:#299129;stop-opacity:0.72156864" />
      <stop
         id="stop4875"
         offset="0.2866517"
         style="stop-color:#299129;stop-opacity:0.51764709" />
      <stop
         style="stop-color:#299129;stop-opacity:0"
         offset="0.32824624"
         id="stop4877" />
      <stop
         style="stop-color:#299129;stop-opacity:0.76862746"
         offset="0.42483661"
         id="stop4879" />
      <stop
         id="stop4881"
         offset="0.5170278"
         style="stop-color:#299129;stop-opacity:0.20833333" />
      <stop
         style="stop-color:#299129;stop-opacity:0"
         offset="0.6252172"
         id="stop4883" />
      <stop
         style="stop-color:#299129;stop-opacity:0.74509805"
         offset="0.72549021"
         id="stop4885" />
      <stop
         id="stop4887"
         offset="0.77538729"
         style="stop-color:#299129;stop-opacity:0.14901961" />
      <stop
         style="stop-color:#299129;stop-opacity:0.78039217"
         offset="0.90187573"
         id="stop4889" />
      <stop
         id="stop4891"
         offset="1"
         style="stop-color:#299129;stop-opacity:0.85490197" />
    </linearGradient>
    <clipPath
       clipPathUnits="userSpaceOnUse"
       id="clipPath6069">
      <path
         sodipodi:nodetypes="cscssccccssccccscccccccccccscsccccccccccccccscccccsccccccsccccccc"
         inkscape:connector-curvature="0"
         id="path6071"
         d="m 460.05558,75.525792 c 8.926,4.435339 6.35006,-7.694972 -2.23581,-14.092542 -11.41292,-8.504083 0.72354,-18.147832 10.39903,-22.058848 -14.81645,-3.281774 -12.1669,-9.571442 -5.1253,-17.98133 13.35331,-15.9480486 21.89835,-14.1861033 30.85186,-13.8055278 32.08984,1.3640024 43.90576,5.4200878 66.08566,17.1330528 14.18867,7.492881 28.16261,19.924428 41.71469,42.058891 3.57525,15.905936 34.49358,6.253834 58.3451,12.003303 28.45901,-9.771038 86.84374,4.330209 46.1275,43.660789 16.73128,4.49141 34.14205,2.05274 49.11368,7.57239 15.68592,5.783 26.36936,21.95927 44.66327,27.72508 18.60705,5.8645 54.36588,1.11107 86.49695,-1.37839 23.36618,-0.24469 37.87289,19.02665 50.68713,32.49949 19.80169,2.2754 31.474,-2.13779 40.16919,38.13167 6.47128,11.20951 8.11993,20.66533 2.50833,27.48106 7.19839,10.101 13.39671,14.07984 12.23793,23.22574 -1.06472,8.40358 -6.60028,16.2962 -18.33962,23.47981 -18.27149,10.02027 -28.15068,4.09519 -35.50259,-6.63174 -32.20611,8.78536 -37.49293,16.50669 -54.3514,20.54296 -10.54689,17.32043 -11.92266,46.49374 -5.18918,68.88713 8.31261,17.02253 7.40972,53.84466 0.58308,59.47486 -12.87112,5.68402 -29.23133,12.06586 -34.98521,16.32644 -2.34019,15.57563 -3.70507,31.29059 4.6647,48.39621 4.69138,29.42399 -21.09381,39.45006 -37.02602,48.25045 -22.85478,6.19985 -43.24642,1.31554 -64.72265,1.31194 -10.01058,8.05665 -18.58768,16.83004 -27.07211,25.64976 -4.28974,23.21289 -30.74042,18.92958 -47.74239,23.05872 -21.48664,3.92179 -44.21042,-7.92703 -52.77047,-13.47161 -13.73729,-8.89801 -11.06065,-33.8059 -22.52758,-34.8569 -11.50094,9.06574 -28.12036,13.53949 -45.45656,15.32956 -18.09131,1.86803 -34.20981,3.36504 -47.86969,-7.54631 -4.53135,-6.92739 -15.25546,-12.16586 -25.65582,-17.49261 -14.71944,-5.69364 -31.62936,-2.62537 -43.41926,-20.03717 -21.70735,2.57809 -48.5411,12.63907 -56.65947,-1.50774 -8.58154,-14.48966 -19.46052,-24.5024 -28.75418,-41.42848 -7.16997,-11.23843 -4.41678,-23.88426 -0.61239,-37.31756 0.91262,-7.59682 -3.4502,-14.93869 -17.49261,-12.82791 -22.97097,-8.92484 -28.43591,-23.22293 -37.31756,-19.82496 -12.1625,7.53669 -14.26728,20.55941 -37.31756,22.15731 -2.32949,22.09851 2.99655,35.44783 8.16321,48.9793 -8.79904,13.28984 -19.70146,33.19891 -50.14547,22.76969 -16.14997,2.31679 -20.98022,17.04032 -58.30869,-9.32939 -12.19488,-7.65148 -27.54963,-10.78887 -32.65287,-28.57127 -25.965977,3.71357 -55.302264,-3.26503 -47.81313,-37.34686 3.628258,-7.42465 -5.238864,-9.7698 -9.848476,-22.76309 -3.301061,-9.30483 -2.430305,-29.18348 -2.396349,-36.71177 C 41.249011,346.66868 26.594271,329.168 33.819042,319.83922 34.006991,305.96118 1.682477,296.3978 7.58013,275.52461 11.670243,256.3709 11.135019,236.2401 25.655825,223.04679 49.749338,208.19264 37.491209,189.512 33.819042,171.73514 c 2.728142,-5.23242 5.539715,-9.96426 8.43549,-14.19089 7.839041,-11.44175 13.379693,-20.93049 22.468116,-24.87594 6.702438,-6.41896 23.947573,10.7217 39.066822,8.74631 12.22265,-0.64943 26.41789,-3.76459 28.13573,8.717 5.39377,8.2716 10.58833,8.52534 17.55727,6.03096 7.27287,-2.41613 0.17742,-14.27716 -7.20926,-24.07735 -4.94099,-14.58129 -3.29637,-28.28451 -0.0647,-41.776113 5.08042,-11.940206 1.63263,-29.699459 18.55102,-31.026314 7.19959,-0.56464 15.61512,6.756801 33.30835,8.804339 53.31229,-7.776225 55.48906,13.379485 69.48738,27.846692 17.33153,5.580216 22.64012,0.370601 29.70813,-3.260033 14.51228,14.712769 22.8389,16.495239 33.26526,14.047139 4.18941,-9.783033 11.43649,-17.272818 18.65878,-24.781192 15.92948,-20.254838 37.05526,-14.528155 58.30869,-8.163217 20.5396,-5.038445 38.21238,-0.520815 56.55943,1.749261 z"
         style="display:inline;fill:none;fill-rule:evenodd;stroke:#000000;stroke-width:15;stroke-linecap:butt;stroke-linejoin:round;stroke-miterlimit:4;stroke-dasharray:none;stroke-opacity:1" />
    </clipPath>
    <clipPath
       clipPathUnits="userSpaceOnUse"
       id="clipPath6169">
      <path
         style="display:inline;fill:none;fill-rule:evenodd;stroke:#000000;stroke-width:15;stroke-linecap:butt;stroke-linejoin:round;stroke-miterlimit:4;stroke-dasharray:none;stroke-opacity:1"
         d="m 642.83219,-686.31052 c 8.926,4.43534 6.35006,-7.69497 -2.23581,-14.09254 -11.41292,-8.50408 0.72354,-18.14783 10.39903,-22.05885 -14.81645,-3.28177 -12.1669,-9.57144 -5.1253,-17.98133 13.35331,-15.94805 21.89835,-14.1861 30.85186,-13.80553 32.08984,1.36401 43.90576,5.42009 66.08566,17.13306 14.18867,7.49288 28.16261,19.92443 41.71469,42.05889 3.57525,15.90593 34.49358,6.25383 58.3451,12.0033 28.45901,-9.77104 86.84374,4.33021 46.1275,43.66079 16.73128,4.49141 34.14205,2.05274 49.11368,7.57239 15.68592,5.783 26.36936,21.95927 44.66327,27.72508 18.60703,5.8645 54.36583,1.11107 86.49693,-1.37839 23.3662,-0.24469 37.8729,19.02665 50.6872,32.49949 19.8016,2.2754 31.474,-2.13779 40.1691,38.13167 6.4713,11.20951 8.12,20.66533 2.5084,27.48106 7.1984,10.101 13.3967,14.07984 12.2379,23.22574 -1.0647,8.40358 -6.6003,16.2962 -18.3396,23.47981 -18.2715,10.02027 -28.1507,4.09519 -35.5026,-6.63174 -32.2061,8.78536 -37.4929,16.50669 -54.3514,20.54296 -10.5469,17.32043 -11.9227,46.49374 -5.1892,68.88713 8.3126,17.02253 7.4097,53.84466 0.5831,59.47486 -12.8711,5.68402 -29.2313,12.06586 -34.9852,16.32644 -2.3402,15.57563 -3.7051,31.29059 4.6647,48.39621 4.6914,29.42399 -21.0938,39.45006 -37.02604,48.25045 -22.85478,6.19985 -43.24642,1.31554 -64.72265,1.31194 -10.01058,8.05665 -18.58768,16.83004 -27.07211,25.64976 -4.28974,23.21289 -30.74042,18.92958 -47.74239,23.05872 -21.48664,3.92179 -44.21042,-7.92703 -52.77047,-13.47161 -13.73729,-8.89801 -11.06065,-33.8059 -22.52758,-34.8569 -11.50094,9.06574 -28.12036,13.53949 -45.45656,15.32956 -18.09131,1.86803 -34.20981,3.36504 -47.86969,-7.54631 -4.53135,-6.92739 -15.25546,-12.16586 -25.65582,-17.49261 -14.71944,-5.69364 -31.62936,-2.62537 -43.41926,-20.03717 -21.70735,2.57809 -48.5411,12.63907 -56.65947,-1.50774 -8.58154,-14.48966 -19.46052,-24.5024 -28.75418,-41.42848 -7.16997,-11.23843 -4.41678,-23.88426 -0.61239,-37.31756 0.91262,-7.59682 -3.4502,-14.93869 -17.49261,-12.82791 -22.97097,-8.92484 -28.43591,-23.22293 -37.31756,-19.82496 -12.1625,7.53669 -14.26728,20.55941 -37.31756,22.15731 -2.32949,22.09851 2.99655,35.44783 8.16321,48.9793 -8.79904,13.28984 -19.70146,33.19891 -50.14547,22.76969 -16.14997,2.31679 -20.98022,17.04032 -58.30869,-9.32939 -12.19488,-7.65148 -27.54963,-10.78887 -32.65287,-28.57127 -25.96598,3.71357 -55.30226,-3.26503 -47.81313,-37.34686 3.62826,-7.42465 -5.23886,-9.7698 -9.84848,-22.76309 -3.30106,-9.30483 -2.4303,-29.18348 -2.39634,-36.71177 -22.30747,-27.98071 -36.96221,-45.48139 -29.73744,-54.81017 0.18795,-13.87804 -32.13656,-23.44142 -26.23891,-44.31461 4.09011,-19.15371 3.55489,-39.28451 18.07569,-52.47782 24.09352,-14.85415 11.83539,-33.53479 8.16322,-51.31165 2.72814,-5.23242 5.53972,-9.96426 8.43549,-14.19089 7.83904,-11.44175 13.3797,-20.93049 22.46812,-24.87594 6.70244,-6.41896 23.94757,10.7217 39.06682,8.74631 12.22265,-0.64943 26.41789,-3.76459 28.13573,8.717 5.39377,8.2716 10.58833,8.52534 17.55727,6.03096 7.27287,-2.41613 0.17742,-14.27716 -7.20926,-24.07735 -4.94099,-14.58129 -3.29637,-28.28451 -0.0647,-41.77611 5.08042,-11.94021 1.63263,-29.69946 18.55102,-31.02632 7.19959,-0.56464 15.61512,6.7568 33.30835,8.80434 53.31229,-7.77622 55.48906,13.37949 69.48738,27.84669 17.33153,5.58022 22.64012,0.3706 29.70813,-3.26003 14.51228,14.71277 22.8389,16.49524 33.26526,14.04714 4.18941,-9.78303 11.43649,-17.27282 18.65878,-24.78119 15.92948,-20.25484 37.05526,-14.52816 58.30869,-8.16322 20.5396,-5.03844 38.21238,-0.52081 56.55943,1.74926 z"
         id="path6171"
         inkscape:connector-curvature="0"
         sodipodi:nodetypes="cscssccccssccccscccccccccccscsccccccccccccccscccccsccccccsccccccc" />
    </clipPath>
    <clipPath
       clipPathUnits="userSpaceOnUse"
       id="clipPath7977">
      <path
         sodipodi:nodetypes="cscssccccssccccscccccccccccscsccccccccccccccscccccsccccccsccccccc"
         inkscape:connector-curvature="0"
         id="path7979"
         d="m 460.05558,75.525792 c 8.926,4.43534 6.35006,-7.69497 -2.23581,-14.09254 -11.41292,-8.50408 0.72354,-18.14783 10.39903,-22.05885 -14.81645,-3.28177 -12.1669,-9.57144 -5.1253,-17.98133 13.35331,-15.94805 21.89835,-14.1861 30.85186,-13.80553 32.08984,1.36401 43.90576,5.42009 66.08566,17.13306 14.18867,7.49288 28.16261,19.92443 41.71469,42.05889 3.57525,15.90593 34.49358,6.25383 58.3451,12.0033 28.45901,-9.77104 86.84374,4.33021 46.1275,43.660798 16.73128,4.49141 34.14205,2.05274 49.11368,7.57239 15.68592,5.783 26.36936,21.95927 44.66327,27.72508 18.60703,5.8645 54.36583,1.11107 86.49693,-1.37839 23.3662,-0.24469 37.8729,19.02665 50.6872,32.49949 19.8016,2.2754 31.474,-2.13779 40.1691,38.13167 6.4713,11.20951 8.12,20.66533 2.5084,27.48106 7.1984,10.101 13.3967,14.07984 12.2379,23.22574 -1.0647,8.40358 -6.6003,16.2962 -18.3396,23.47981 -18.2715,10.02027 -28.1507,4.09519 -35.5026,-6.63174 -32.2061,8.78536 -37.4929,16.50669 -54.3514,20.54296 -10.5469,17.32043 -11.9227,46.49374 -5.1892,68.88713 8.3126,17.02253 7.4097,53.84466 0.5831,59.47486 -12.8711,5.68402 -29.2313,12.06586 -34.9852,16.32644 -2.3402,15.57563 -3.7051,31.29059 4.6647,48.39621 4.6914,29.42399 -21.0938,39.45006 -37.02604,48.25045 -22.85478,6.19985 -43.24642,1.31554 -64.72265,1.31194 -10.01058,8.05665 -18.58768,16.83004 -27.07211,25.64976 -4.28974,23.21289 -30.74042,18.92958 -47.74239,23.05872 -21.48664,3.92179 -44.21042,-7.92703 -52.77047,-13.47161 -13.73729,-8.89801 -11.06065,-33.8059 -22.52758,-34.8569 -11.50094,9.06574 -28.12036,13.53949 -45.45656,15.32956 -18.09131,1.86803 -34.20981,3.36504 -47.86969,-7.54631 -4.53135,-6.92739 -15.25546,-12.16586 -25.65582,-17.49261 -14.71944,-5.69364 -31.62936,-2.62537 -43.41926,-20.03717 -21.70735,2.57809 -48.5411,12.63907 -56.65947,-1.50774 -8.58154,-14.48966 -19.46052,-24.5024 -28.75418,-41.42848 -7.16997,-11.23843 -4.41678,-23.88426 -0.61239,-37.31756 0.91262,-7.59682 -3.4502,-14.93869 -17.49261,-12.82791 -22.97097,-8.92484 -28.43591,-23.22293 -37.31756,-19.82496 -12.1625,7.53669 -14.26728,20.55941 -37.31756,22.15731 -2.32949,22.09851 2.99655,35.44783 8.16321,48.9793 -8.79904,13.28984 -19.70146,33.19891 -50.14547,22.76969 -16.14997,2.31679 -20.98022,17.04032 -58.30869,-9.32939 -12.19488,-7.65148 -27.54963,-10.78887 -32.65287,-28.57127 -25.96598,3.71357 -55.30226,-3.26503 -47.81313,-37.34686 3.62826,-7.42465 -5.23886,-9.7698 -9.84848,-22.76309 -3.30106,-9.30483 -2.4303,-29.18348 -2.39634,-36.71177 C 41.24901,346.66869 26.59427,329.16801 33.81904,319.83923 34.00699,305.96119 1.68248,296.39781 7.58013,275.52462 c 4.09011,-19.15371 3.55489,-39.28451 18.07569,-52.47782 24.09352,-14.85415 11.83539,-33.53479 8.16322,-51.31165 2.72814,-5.23242 5.53972,-9.96426 8.43549,-14.19089 7.83904,-11.44175 13.3797,-20.93049 22.46812,-24.87594 6.70244,-6.41896 23.94757,10.7217 39.06682,8.74631 12.22265,-0.64943 26.41789,-3.76459 28.13573,8.717 5.39377,8.2716 10.58833,8.52534 17.55727,6.03096 7.27287,-2.41613 0.17742,-14.27716 -7.20926,-24.07735 -4.94099,-14.58129 -3.29637,-28.28451 -0.0647,-41.776118 5.08042,-11.94021 1.63263,-29.69946 18.55102,-31.02632 7.19959,-0.56464 15.61512,6.7568 33.30835,8.80434 53.31229,-7.77622 55.48906,13.37949 69.48738,27.84669 17.33153,5.580228 22.64012,0.3706 29.70813,-3.26003 14.51228,14.712778 22.8389,16.495248 33.26526,14.047148 4.18941,-9.783038 11.43649,-17.272828 18.65878,-24.781198 15.92948,-20.25484 37.05526,-14.52816 58.30869,-8.16322 20.5396,-5.03844 38.21238,-0.52081 56.55943,1.74926 z"
         style="display:inline;opacity:0.95499998;fill:none;fill-rule:evenodd;stroke:#000000;stroke-width:15;stroke-linecap:butt;stroke-linejoin:round;stroke-miterlimit:4;stroke-dasharray:none;stroke-opacity:1" />
    </clipPath>
    <clipPath
       clipPathUnits="userSpaceOnUse"
       id="clipPath4692">
      <path
         style="display:inline;fill:none;fill-rule:evenodd;stroke:#000000;stroke-width:15;stroke-linecap:butt;stroke-linejoin:round;stroke-miterlimit:4;stroke-dasharray:none;stroke-opacity:1"
         d="m 460.05558,75.525792 c 8.926,4.435339 6.35006,-7.694972 -2.23581,-14.092542 -11.41292,-8.504083 0.72354,-18.147832 10.39903,-22.058848 -14.81645,-3.281774 -12.1669,-9.571442 -5.1253,-17.98133 13.35331,-15.9480486 21.89835,-14.1861033 30.85186,-13.8055278 32.08984,1.3640024 43.90576,5.4200878 66.08566,17.1330528 14.18867,7.492881 28.16261,19.924428 41.71469,42.058891 3.57525,15.905936 34.49358,6.253834 58.3451,12.003303 28.45901,-9.771038 86.84374,4.330209 46.1275,43.660789 16.73128,4.49141 34.14205,2.05274 49.11368,7.57239 15.68592,5.783 26.36936,21.95927 44.66327,27.72508 18.60705,5.8645 54.36588,1.11107 86.49695,-1.37839 23.36618,-0.24469 37.87289,19.02665 50.68713,32.49949 19.80169,2.2754 31.474,-2.13779 40.16919,38.13167 6.47128,11.20951 8.11993,20.66533 2.50833,27.48106 7.19839,10.101 13.39671,14.07984 12.23793,23.22574 -1.06472,8.40358 -6.60028,16.2962 -18.33962,23.47981 -18.27149,10.02027 -28.15068,4.09519 -35.50259,-6.63174 -32.20611,8.78536 -37.49293,16.50669 -54.3514,20.54296 -10.54689,17.32043 -11.92266,46.49374 -5.18918,68.88713 8.31261,17.02253 7.40972,53.84466 0.58308,59.47486 -12.87112,5.68402 -29.23133,12.06586 -34.98521,16.32644 -2.34019,15.57563 -3.70507,31.29059 4.6647,48.39621 4.69138,29.42399 -21.09381,39.45006 -37.02602,48.25045 -22.85478,6.19985 -43.24642,1.31554 -64.72265,1.31194 -10.01058,8.05665 -18.58768,16.83004 -27.07211,25.64976 -4.28974,23.21289 -30.74042,18.92958 -47.74239,23.05872 -21.48664,3.92179 -44.21042,-7.92703 -52.77047,-13.47161 -13.73729,-8.89801 -11.06065,-33.8059 -22.52758,-34.8569 -11.50094,9.06574 -28.12036,13.53949 -45.45656,15.32956 -18.09131,1.86803 -34.20981,3.36504 -47.86969,-7.54631 -4.53135,-6.92739 -15.25546,-12.16586 -25.65582,-17.49261 -14.71944,-5.69364 -31.62936,-2.62537 -43.41926,-20.03717 -21.70735,2.57809 -48.5411,12.63907 -56.65947,-1.50774 -8.58154,-14.48966 -19.46052,-24.5024 -28.75418,-41.42848 -7.16997,-11.23843 -4.41678,-23.88426 -0.61239,-37.31756 0.91262,-7.59682 -3.4502,-14.93869 -17.49261,-12.82791 -22.97097,-8.92484 -28.43591,-23.22293 -37.31756,-19.82496 -12.1625,7.53669 -14.26728,20.55941 -37.31756,22.15731 -2.32949,22.09851 2.99655,35.44783 8.16321,48.9793 -8.79904,13.28984 -19.70146,33.19891 -50.14547,22.76969 -16.14997,2.31679 -20.98022,17.04032 -58.30869,-9.32939 -12.19488,-7.65148 -27.54963,-10.78887 -32.65287,-28.57127 -25.965977,3.71357 -55.302264,-3.26503 -47.81313,-37.34686 3.628258,-7.42465 -5.238864,-9.7698 -9.848476,-22.76309 -3.301061,-9.30483 -2.430305,-29.18348 -2.396349,-36.71177 C 41.249011,346.66868 26.594271,329.168 33.819042,319.83922 34.006991,305.96118 1.682477,296.3978 7.58013,275.52461 11.670243,256.3709 11.135019,236.2401 25.655825,223.04679 49.749338,208.19264 37.491209,189.512 33.819042,171.73514 c 2.728142,-5.23242 5.539715,-9.96426 8.43549,-14.19089 7.839041,-11.44175 13.379693,-20.93049 22.468116,-24.87594 6.702438,-6.41896 23.947573,10.7217 39.066822,8.74631 12.22265,-0.64943 26.41789,-3.76459 28.13573,8.717 5.39377,8.2716 10.58833,8.52534 17.55727,6.03096 7.27287,-2.41613 0.17742,-14.27716 -7.20926,-24.07735 -4.94099,-14.58129 -3.29637,-28.28451 -0.0647,-41.776113 5.08042,-11.940206 1.63263,-29.699459 18.55102,-31.026314 7.19959,-0.56464 15.61512,6.756801 33.30835,8.804339 53.31229,-7.776225 55.48906,13.379485 69.48738,27.846692 17.33153,5.580216 22.64012,0.370601 29.70813,-3.260033 14.51228,14.712769 22.8389,16.495239 33.26526,14.047139 4.18941,-9.783033 11.43649,-17.272818 18.65878,-24.781192 15.92948,-20.254838 37.05526,-14.528155 58.30869,-8.163217 20.5396,-5.038445 38.21238,-0.520815 56.55943,1.749261 z"
         id="path4694"
         inkscape:connector-curvature="0"
         sodipodi:nodetypes="cscssccccssccccscccccccccccscsccccccccccccccscccccsccccccsccccccc" />
    </clipPath>
    <clipPath
       clipPathUnits="userSpaceOnUse"
       id="clipPath5426">
      <path
         sodipodi:nodetypes="cscssccccssccccscccccccccccscsccccccccccccccscccccsccccccsccccccc"
         inkscape:connector-curvature="0"
         id="path5428"
         d="m 460.05558,75.525792 c 8.926,4.435339 6.35006,-7.694972 -2.23581,-14.092542 -11.41292,-8.504083 0.72354,-18.147832 10.39903,-22.058848 -14.81645,-3.281774 -12.1669,-9.571442 -5.1253,-17.98133 13.35331,-15.9480486 21.89835,-14.1861033 30.85186,-13.8055278 32.08984,1.3640024 43.90576,5.4200878 66.08566,17.1330528 14.18867,7.492881 28.16261,19.924428 41.71469,42.058891 3.57525,15.905936 34.49358,6.253834 58.3451,12.003303 28.45901,-9.771038 86.84374,4.330209 46.1275,43.660789 16.73128,4.49141 34.14205,2.05274 49.11368,7.57239 15.68592,5.783 26.36936,21.95927 44.66327,27.72508 18.60705,5.8645 54.36588,1.11107 86.49695,-1.37839 23.36618,-0.24469 37.87289,19.02665 50.68713,32.49949 19.80169,2.2754 31.474,-2.13779 40.16919,38.13167 6.47128,11.20951 8.11993,20.66533 2.50833,27.48106 7.19839,10.101 13.39671,14.07984 12.23793,23.22574 -1.06472,8.40358 -6.60028,16.2962 -18.33962,23.47981 -18.27149,10.02027 -28.15068,4.09519 -35.50259,-6.63174 -32.20611,8.78536 -37.49293,16.50669 -54.3514,20.54296 -10.54689,17.32043 -11.92266,46.49374 -5.18918,68.88713 8.31261,17.02253 7.40972,53.84466 0.58308,59.47486 -12.87112,5.68402 -29.23133,12.06586 -34.98521,16.32644 -2.34019,15.57563 -3.70507,31.29059 4.6647,48.39621 4.69138,29.42399 -21.09381,39.45006 -37.02602,48.25045 -22.85478,6.19985 -43.24642,1.31554 -64.72265,1.31194 -10.01058,8.05665 -18.58768,16.83004 -27.07211,25.64976 -4.28974,23.21289 -30.74042,18.92958 -47.74239,23.05872 -21.48664,3.92179 -44.21042,-7.92703 -52.77047,-13.47161 -13.73729,-8.89801 -11.06065,-33.8059 -22.52758,-34.8569 -11.50094,9.06574 -28.12036,13.53949 -45.45656,15.32956 -18.09131,1.86803 -34.20981,3.36504 -47.86969,-7.54631 -4.53135,-6.92739 -15.25546,-12.16586 -25.65582,-17.49261 -14.71944,-5.69364 -31.62936,-2.62537 -43.41926,-20.03717 -21.70735,2.57809 -48.5411,12.63907 -56.65947,-1.50774 -8.58154,-14.48966 -19.46052,-24.5024 -28.75418,-41.42848 -7.16997,-11.23843 -4.41678,-23.88426 -0.61239,-37.31756 0.91262,-7.59682 -3.4502,-14.93869 -17.49261,-12.82791 -22.97097,-8.92484 -28.43591,-23.22293 -37.31756,-19.82496 -12.1625,7.53669 -14.26728,20.55941 -37.31756,22.15731 -2.32949,22.09851 2.99655,35.44783 8.16321,48.9793 -8.79904,13.28984 -19.70146,33.19891 -50.14547,22.76969 -16.14997,2.31679 -20.98022,17.04032 -58.30869,-9.32939 -12.19488,-7.65148 -27.54963,-10.78887 -32.65287,-28.57127 -25.965977,3.71357 -55.302264,-3.26503 -47.81313,-37.34686 3.628258,-7.42465 -5.238864,-9.7698 -9.848476,-22.76309 -3.301061,-9.30483 -2.430305,-29.18348 -2.396349,-36.71177 C 41.249011,346.66868 26.594271,329.168 33.819042,319.83922 34.006991,305.96118 1.682477,296.3978 7.58013,275.52461 11.670243,256.3709 11.135019,236.2401 25.655825,223.04679 49.749338,208.19264 37.491209,189.512 33.819042,171.73514 c 2.728142,-5.23242 5.539715,-9.96426 8.43549,-14.19089 7.839041,-11.44175 13.379693,-20.93049 22.468116,-24.87594 6.702438,-6.41896 23.947573,10.7217 39.066822,8.74631 12.22265,-0.64943 26.41789,-3.76459 28.13573,8.717 5.39377,8.2716 10.58833,8.52534 17.55727,6.03096 7.27287,-2.41613 0.17742,-14.27716 -7.20926,-24.07735 -4.94099,-14.58129 -3.29637,-28.28451 -0.0647,-41.776113 5.08042,-11.940206 1.63263,-29.699459 18.55102,-31.026314 7.19959,-0.56464 15.61512,6.756801 33.30835,8.804339 53.31229,-7.776225 55.48906,13.379485 69.48738,27.846692 17.33153,5.580216 22.64012,0.370601 29.70813,-3.260033 14.51228,14.712769 22.8389,16.495239 33.26526,14.047139 4.18941,-9.783033 11.43649,-17.272818 18.65878,-24.781192 15.92948,-20.254838 37.05526,-14.528155 58.30869,-8.163217 20.5396,-5.038445 38.21238,-0.520815 56.55943,1.749261 z"
         style="display:inline;fill:none;fill-rule:evenodd;stroke:#000000;stroke-width:15;stroke-linecap:butt;stroke-linejoin:round;stroke-miterlimit:4;stroke-dasharray:none;stroke-opacity:1" />
    </clipPath>
    <clipPath
       clipPathUnits="userSpaceOnUse"
       id="clipPath9790">
      <path
         style="display:inline;fill:none;fill-rule:evenodd;stroke:#000000;stroke-width:15;stroke-linecap:butt;stroke-linejoin:round;stroke-miterlimit:4;stroke-dasharray:none;stroke-opacity:1"
         d="m 460.05558,75.525792 c 8.926,4.435339 6.35006,-7.694972 -2.23581,-14.092542 -11.41292,-8.504083 0.72354,-18.147832 10.39903,-22.058848 -14.81645,-3.281774 -12.1669,-9.571442 -5.1253,-17.98133 13.35331,-15.9480486 21.89835,-14.1861033 30.85186,-13.8055278 32.08984,1.3640024 43.90576,5.4200878 66.08566,17.1330528 14.18867,7.492881 28.16261,19.924428 41.71469,42.058891 3.57525,15.905936 34.49358,6.253834 58.3451,12.003303 28.45901,-9.771038 86.84374,4.330209 46.1275,43.660789 16.73128,4.49141 34.14205,2.05274 49.11368,7.57239 15.68592,5.783 26.36936,21.95927 44.66327,27.72508 18.60705,5.8645 54.36588,1.11107 86.49695,-1.37839 23.36618,-0.24469 37.87289,19.02665 50.68713,32.49949 19.80169,2.2754 31.474,-2.13779 40.16919,38.13167 6.47128,11.20951 8.11993,20.66533 2.50833,27.48106 7.19839,10.101 13.39671,14.07984 12.23793,23.22574 -1.06472,8.40358 -6.60028,16.2962 -18.33962,23.47981 -18.27149,10.02027 -28.15068,4.09519 -35.50259,-6.63174 -32.20611,8.78536 -37.49293,16.50669 -54.3514,20.54296 -10.54689,17.32043 -11.92266,46.49374 -5.18918,68.88713 8.31261,17.02253 7.40972,53.84466 0.58308,59.47486 -12.87112,5.68402 -29.23133,12.06586 -34.98521,16.32644 -2.34019,15.57563 -3.70507,31.29059 4.6647,48.39621 4.69138,29.42399 -21.09381,39.45006 -37.02602,48.25045 -22.85478,6.19985 -43.24642,1.31554 -64.72265,1.31194 -10.01058,8.05665 -18.58768,16.83004 -27.07211,25.64976 -4.28974,23.21289 -30.74042,18.92958 -47.74239,23.05872 -21.48664,3.92179 -44.21042,-7.92703 -52.77047,-13.47161 -13.73729,-8.89801 -11.06065,-33.8059 -22.52758,-34.8569 -11.50094,9.06574 -28.12036,13.53949 -45.45656,15.32956 -18.09131,1.86803 -34.20981,3.36504 -47.86969,-7.54631 -4.53135,-6.92739 -15.25546,-12.16586 -25.65582,-17.49261 -14.71944,-5.69364 -31.62936,-2.62537 -43.41926,-20.03717 -21.70735,2.57809 -48.5411,12.63907 -56.65947,-1.50774 -8.58154,-14.48966 -19.46052,-24.5024 -28.75418,-41.42848 -7.16997,-11.23843 -4.41678,-23.88426 -0.61239,-37.31756 0.91262,-7.59682 -3.4502,-14.93869 -17.49261,-12.82791 -22.97097,-8.92484 -28.43591,-23.22293 -37.31756,-19.82496 -12.1625,7.53669 -14.26728,20.55941 -37.31756,22.15731 -2.32949,22.09851 2.99655,35.44783 8.16321,48.9793 -8.79904,13.28984 -19.70146,33.19891 -50.14547,22.76969 -16.14997,2.31679 -20.98022,17.04032 -58.30869,-9.32939 -12.19488,-7.65148 -27.54963,-10.78887 -32.65287,-28.57127 -25.965977,3.71357 -55.302264,-3.26503 -47.81313,-37.34686 3.628258,-7.42465 -5.238864,-9.7698 -9.848476,-22.76309 -3.301061,-9.30483 -2.430305,-29.18348 -2.396349,-36.71177 C 41.249011,346.66868 26.594271,329.168 33.819042,319.83922 34.006991,305.96118 1.682477,296.3978 7.58013,275.52461 11.670243,256.3709 11.135019,236.2401 25.655825,223.04679 49.749338,208.19264 37.491209,189.512 33.819042,171.73514 c 2.728142,-5.23242 5.539715,-9.96426 8.43549,-14.19089 7.839041,-11.44175 13.379693,-20.93049 22.468116,-24.87594 6.702438,-6.41896 23.947573,10.7217 39.066822,8.74631 12.22265,-0.64943 26.41789,-3.76459 28.13573,8.717 5.39377,8.2716 10.58833,8.52534 17.55727,6.03096 7.27287,-2.41613 0.17742,-14.27716 -7.20926,-24.07735 -4.94099,-14.58129 -3.29637,-28.28451 -0.0647,-41.776113 5.08042,-11.940206 1.63263,-29.699459 18.55102,-31.026314 7.19959,-0.56464 15.61512,6.756801 33.30835,8.804339 53.31229,-7.776225 55.48906,13.379485 69.48738,27.846692 17.33153,5.580216 22.64012,0.370601 29.70813,-3.260033 14.51228,14.712769 22.8389,16.495239 33.26526,14.047139 4.18941,-9.783033 11.43649,-17.272818 18.65878,-24.781192 15.92948,-20.254838 37.05526,-14.528155 58.30869,-8.163217 20.5396,-5.038445 38.21238,-0.520815 56.55943,1.749261 z"
         id="path9792"
         inkscape:connector-curvature="0"
         sodipodi:nodetypes="cscssccccssccccscccccccccccscsccccccccccccccscccccsccccccsccccccc" />
    </clipPath>
    <linearGradient
       inkscape:collect="always"
       xlink:href="#linearGradient10562"
       id="linearGradient10560"
       gradientUnits="userSpaceOnUse"
       x1="-172.88634"
       y1="481.42941"
       x2="1037.35"
       y2="481.42941"
       gradientTransform="matrix(0.999374,0,0,1.0254633,0.30949842,-15.380585)" />
    <linearGradient
       inkscape:collect="always"
       id="linearGradient10562">
      <stop
         style="stop-color:#299129;stop-opacity:0.0627451"
         offset="0"
         id="stop10564" />
      <stop
         id="stop10566"
         offset="0.05964312"
         style="stop-color:#299129;stop-opacity:0.50196081" />
      <stop
         id="stop10568"
         offset="0.11606061"
         style="stop-color:#299124;stop-opacity:0.43921569" />
      <stop
         style="stop-color:#299127;stop-opacity:0.1254902;"
         offset="0.14132173"
         id="stop10570" />
      <stop
         id="stop10572"
         offset="0.17354344"
         style="stop-color:#299129;stop-opacity:0" />
      <stop
         style="stop-color:#299129;stop-opacity:0.87790698"
         offset="0.24299999"
         id="stop10574" />
      <stop
         style="stop-color:#299129;stop-opacity:0.51764709"
         offset="0.2866517"
         id="stop10576" />
      <stop
         id="stop10578"
         offset="0.32290804"
         style="stop-color:#299129;stop-opacity:0" />
      <stop
         style="stop-color:#299129;stop-opacity:0.55232561"
         offset="0.37595069"
         id="stop10580" />
      <stop
         id="stop10582"
         offset="0.42483661"
         style="stop-color:#299129;stop-opacity:0.93023258" />
      <stop
         style="stop-color:#299129;stop-opacity:0.43137255"
         offset="0.46097675"
         id="stop10584" />
      <stop
         id="stop10586"
         offset="0.51634759"
         style="stop-color:#299129;stop-opacity:0.08333334" />
      <stop
         id="stop10588"
         offset="0.55582064"
         style="stop-color:#299129;stop-opacity:0" />
      <stop
         id="stop10590"
         offset="0.68008715"
         style="stop-color:#299129;stop-opacity:0.94901961" />
      <stop
         style="stop-color:#299129;stop-opacity:0.49418604"
         offset="0.77538729"
         id="stop10592" />
      <stop
         id="stop10594"
         offset="0.84892082"
         style="stop-color:#299129;stop-opacity:0.37647059;" />
      <stop
         id="stop10596"
         offset="0.90187573"
         style="stop-color:#299129;stop-opacity:0.78039217" />
      <stop
         style="stop-color:#299129;stop-opacity:0.85490197"
         offset="1"
         id="stop10598" />
    </linearGradient>
    <linearGradient
       inkscape:collect="always"
       xlink:href="#linearGradient8747"
       id="linearGradient5714"
       x1="-121.57436"
       y1="381.94745"
       x2="1029.2733"
       y2="381.94745"
       gradientUnits="userSpaceOnUse"
       gradientTransform="matrix(0.999374,0,0,1.0254633,0.30949842,-15.380585)" />
    <linearGradient
       inkscape:collect="always"
       id="linearGradient8747">
      <stop
         style="stop-color:#299129;stop-opacity:0.50588238"
         offset="0"
         id="stop8749" />
      <stop
         id="stop8751"
         offset="0.04386208"
         style="stop-color:#299129;stop-opacity:0.50196081" />
      <stop
         id="stop8753"
         offset="0.0902371"
         style="stop-color:#299129;stop-opacity:0.15294118" />
      <stop
         id="stop8755"
         offset="0.15241259"
         style="stop-color:#299129;stop-opacity:0.50196081" />
      <stop
         style="stop-color:#299129;stop-opacity:0"
         offset="0.27284643"
         id="stop8757" />
      <stop
         style="stop-color:#299129;stop-opacity:0.51764709"
         offset="0.3296909"
         id="stop8759" />
      <stop
         id="stop8761"
         offset="0.38563183"
         style="stop-color:#299129;stop-opacity:0.68604654" />
      <stop
         id="stop8763"
         offset="0.44773"
         style="stop-color:#299129;stop-opacity:0.88372093" />
      <stop
         style="stop-color:#299129;stop-opacity:0.22745098"
         offset="0.5424158"
         id="stop8765" />
      <stop
         id="stop8767"
         offset="0.62037063"
         style="stop-color:#299129;stop-opacity:0.16666667" />
      <stop
         id="stop8769"
         offset="0.69966668"
         style="stop-color:#299129;stop-opacity:0.50588238" />
      <stop
         style="stop-color:#299129;stop-opacity:0.05357143"
         offset="0.82559967"
         id="stop8771" />
      <stop
         id="stop8773"
         offset="0.90187573"
         style="stop-color:#299129;stop-opacity:0" />
      <stop
         style="stop-color:#299129;stop-opacity:0.80392158"
         offset="1"
         id="stop8775" />
    </linearGradient>
    <linearGradient
       inkscape:collect="always"
       xlink:href="#linearGradient4863"
       id="linearGradient10600"
       gradientUnits="userSpaceOnUse"
       x1="-96.551308"
       y1="589.32068"
       x2="1092.2722"
       y2="528.75366"
       gradientTransform="matrix(0.999374,0,0,1.0254633,0.30949842,-15.380585)" />
    <linearGradient
       inkscape:collect="always"
       xlink:href="#linearGradient11546"
       id="linearGradient11544"
       gradientUnits="userSpaceOnUse"
       x1="-126.40532"
       y1="301.23004"
       x2="1100.3481"
       y2="301.23004"
       gradientTransform="matrix(0.999374,0,0,1.0254633,0.30949842,-15.380585)" />
    <linearGradient
       inkscape:collect="always"
       id="linearGradient11546">
      <stop
         style="stop-color:#299129;stop-opacity:0.0627451"
         offset="0"
         id="stop11548" />
      <stop
         id="stop11550"
         offset="0.05964312"
         style="stop-color:#299129;stop-opacity:0.82738096" />
      <stop
         id="stop11552"
         offset="0.11606061"
         style="stop-color:#299124;stop-opacity:0.21428572" />
      <stop
         id="stop11554"
         offset="0.19091411"
         style="stop-color:#299129;stop-opacity:0" />
      <stop
         style="stop-color:#299129;stop-opacity:0.72156864"
         offset="0.24299999"
         id="stop11556" />
      <stop
         style="stop-color:#299129;stop-opacity:0.35714287"
         offset="0.27063692"
         id="stop11558" />
      <stop
         id="stop11560"
         offset="0.32824624"
         style="stop-color:#299129;stop-opacity:0.0952381" />
      <stop
         style="stop-color:#299129;stop-opacity:0.75"
         offset="0.38998204"
         id="stop11562" />
      <stop
         id="stop11564"
         offset="0.42483661"
         style="stop-color:#299129;stop-opacity:0.76862746" />
      <stop
         style="stop-color:#299129;stop-opacity:0.20238096"
         offset="0.58118051"
         id="stop11566" />
      <stop
         id="stop11568"
         offset="0.60151875"
         style="stop-color:#299129;stop-opacity:0" />
      <stop
         id="stop11570"
         offset="0.72549021"
         style="stop-color:#299129;stop-opacity:0.92441863" />
      <stop
         style="stop-color:#299129;stop-opacity:0.06547619"
         offset="0.8333168"
         id="stop11572" />
      <stop
         id="stop11574"
         offset="0.88091958"
         style="stop-color:#299129;stop-opacity:0.20833333" />
      <stop
         id="stop11576"
         offset="0.90187573"
         style="stop-color:#299129;stop-opacity:0.78039217" />
      <stop
         style="stop-color:#299129;stop-opacity:0.85490197"
         offset="1"
         id="stop11578" />
    </linearGradient>
    <linearGradient
       inkscape:collect="always"
       xlink:href="#linearGradient11582"
       id="linearGradient11580"
       gradientUnits="userSpaceOnUse"
       x1="-147.41382"
       y1="224.80685"
       x2="1161.7208"
       y2="224.80685"
       gradientTransform="matrix(0.999374,0,0,1.0254633,0.30949842,-15.380585)" />
    <linearGradient
       id="linearGradient11582"
       inkscape:collect="always">
      <stop
         id="stop11584"
         offset="0"
         style="stop-color:#299129;stop-opacity:0.0627451" />
      <stop
         style="stop-color:#299129;stop-opacity:0.50196081"
         offset="0.05964312"
         id="stop11586" />
      <stop
         style="stop-color:#299124;stop-opacity:0.43921569"
         offset="0.08638113"
         id="stop11588" />
      <stop
         style="stop-color:#299129;stop-opacity:0"
         offset="0.13098435"
         id="stop11592" />
      <stop
         id="stop11594"
         offset="0.24299999"
         style="stop-color:#299129;stop-opacity:0.48837209" />
      <stop
         id="stop11596"
         offset="0.30582547"
         style="stop-color:#299129;stop-opacity:0.79651165" />
      <stop
         style="stop-color:#299129;stop-opacity:0"
         offset="0.40327087"
         id="stop11598" />
      <stop
         id="stop11600"
         offset="0.42131442"
         style="stop-color:#299129;stop-opacity:0.20784314;" />
      <stop
         style="stop-color:#299129;stop-opacity:0.87209302"
         offset="0.50509548"
         id="stop11602" />
      <stop
         id="stop11604"
         offset="0.62765521"
         style="stop-color:#299129;stop-opacity:0.70348835" />
      <stop
         style="stop-color:#299129;stop-opacity:0.08333334"
         offset="0.67797101"
         id="stop11606" />
      <stop
         style="stop-color:#299129;stop-opacity:0"
         offset="0.72025514"
         id="stop11608" />
      <stop
         style="stop-color:#299129;stop-opacity:0.74509805"
         offset="0.77045238"
         id="stop11610" />
      <stop
         id="stop11612"
         offset="0.84694368"
         style="stop-color:#299129;stop-opacity:0.14901961" />
      <stop
         style="stop-color:#299129;stop-opacity:0.37647059;"
         offset="0.84892082"
         id="stop11614" />
      <stop
         style="stop-color:#299129;stop-opacity:0.78039217"
         offset="0.90187573"
         id="stop11616" />
      <stop
         id="stop11618"
         offset="1"
         style="stop-color:#299129;stop-opacity:0.85490197" />
    </linearGradient>
    <linearGradient
       inkscape:collect="always"
       xlink:href="#linearGradient17191"
       id="linearGradient5690"
       x1="-66.666954"
       y1="119.54622"
       x2="1048.6285"
       y2="119.54622"
       gradientUnits="userSpaceOnUse"
       gradientTransform="matrix(0.999374,0,0,1.0254633,0.30949842,-15.380585)" />
    <linearGradient
       inkscape:collect="always"
       xlink:href="#linearGradient17229"
       id="linearGradient10602"
       gradientUnits="userSpaceOnUse"
       x1="-76.45993"
       y1="49.631298"
       x2="1121.4623"
       y2="31.358307"
       gradientTransform="matrix(0.999374,0,0,1.0254633,0.30949842,-15.380585)" />
    <filter
       inkscape:collect="always"
       style="color-interpolation-filters:sRGB"
       id="filter17916"
       x="-0.034722083"
       width="1.0694442"
       y="-0.082583371"
       height="1.1651667">
      <feGaussianBlur
         inkscape:collect="always"
         stdDeviation="19.003282"
         id="feGaussianBlur17918" />
    </filter>
    <filter
       inkscape:collect="always"
       style="color-interpolation-filters:sRGB"
       id="filter18026"
       x="-0.0093749624"
       width="1.0187499"
       y="-0.02229751"
       height="1.044595">
      <feGaussianBlur
         inkscape:collect="always"
         stdDeviation="5.1308863"
         id="feGaussianBlur18028" />
    </filter>
    <clipPath
       clipPathUnits="userSpaceOnUse"
       id="clipPath18082">
      <path
         style="display:inline;opacity:1;fill:none;fill-rule:evenodd;stroke:#000000;stroke-width:15;stroke-linecap:butt;stroke-linejoin:round;stroke-miterlimit:4;stroke-dasharray:none;stroke-opacity:1"
         d="m 460.05558,75.525792 c 8.926,4.435339 6.35006,-7.694972 -2.23581,-14.092542 -11.41292,-8.504083 0.72354,-18.147832 10.39903,-22.058848 -14.81645,-3.281774 -12.1669,-9.571442 -5.1253,-17.98133 13.35331,-15.9480486 21.89835,-14.1861033 30.85186,-13.8055278 32.08984,1.3640024 43.90576,5.4200878 66.08566,17.1330528 14.18867,7.492881 28.16261,19.924428 41.71469,42.058891 3.57525,15.905936 34.49358,6.253834 58.3451,12.003303 28.45901,-9.771038 86.84374,4.330209 46.1275,43.660789 16.73128,4.49141 34.14205,2.05274 49.11368,7.57239 15.68592,5.783 26.36936,21.95927 44.66327,27.72508 18.60705,5.8645 54.36588,1.11107 86.49695,-1.37839 23.36618,-0.24469 37.87289,19.02665 50.68713,32.49949 19.80169,2.2754 31.474,-2.13779 40.16919,38.13167 6.47128,11.20951 8.11993,20.66533 2.50833,27.48106 7.19839,10.101 13.39671,14.07984 12.23793,23.22574 -1.06472,8.40358 -6.60028,16.2962 -18.33962,23.47981 -18.27149,10.02027 -28.15068,4.09519 -35.50259,-6.63174 -32.20611,8.78536 -37.49293,16.50669 -54.3514,20.54296 -10.54689,17.32043 -11.92266,46.49374 -5.18918,68.88713 8.31261,17.02253 7.40972,53.84466 0.58308,59.47486 -12.87112,5.68402 -29.23133,12.06586 -34.98521,16.32644 -2.34019,15.57563 -3.70507,31.29059 4.6647,48.39621 4.69138,29.42399 -21.09381,39.45006 -37.02602,48.25045 -22.85478,6.19985 -43.24642,1.31554 -64.72265,1.31194 -10.01058,8.05665 -18.58768,16.83004 -27.07211,25.64976 -4.28974,23.21289 -30.74042,18.92958 -47.74239,23.05872 -21.48664,3.92179 -44.21042,-7.92703 -52.77047,-13.47161 -13.73729,-8.89801 -11.06065,-33.8059 -22.52758,-34.8569 -11.50094,9.06574 -28.12036,13.53949 -45.45656,15.32956 -18.09131,1.86803 -34.20981,3.36504 -47.86969,-7.54631 -4.53135,-6.92739 -15.25546,-12.16586 -25.65582,-17.49261 -14.71944,-5.69364 -31.62936,-2.62537 -43.41926,-20.03717 -21.70735,2.57809 -48.5411,12.63907 -56.65947,-1.50774 -8.58154,-14.48966 -19.46052,-24.5024 -28.75418,-41.42848 -7.16997,-11.23843 -4.41678,-23.88426 -0.61239,-37.31756 0.91262,-7.59682 -3.4502,-14.93869 -17.49261,-12.82791 -22.97097,-8.92484 -28.43591,-23.22293 -37.31756,-19.82496 -12.1625,7.53669 -14.26728,20.55941 -37.31756,22.15731 -2.32949,22.09851 2.99655,35.44783 8.16321,48.9793 -8.79904,13.28984 -19.70146,33.19891 -50.14547,22.76969 -16.14997,2.31679 -20.98022,17.04032 -58.30869,-9.32939 -12.19488,-7.65148 -27.54963,-10.78887 -32.65287,-28.57127 -25.965977,3.71357 -55.302264,-3.26503 -47.81313,-37.34686 3.628258,-7.42465 -5.238864,-9.7698 -9.848476,-22.76309 -3.301061,-9.30483 -2.430305,-29.18348 -2.396349,-36.71177 C 41.249011,346.66868 26.594271,329.168 33.819042,319.83922 34.006991,305.96118 1.682477,296.3978 7.58013,275.52461 11.670243,256.3709 11.135019,236.2401 25.655825,223.04679 49.749338,208.19264 37.491209,189.512 33.819042,171.73514 c 2.728142,-5.23242 5.539715,-9.96426 8.43549,-14.19089 7.839041,-11.44175 13.379693,-20.93049 22.468116,-24.87594 6.702438,-6.41896 23.947573,10.7217 39.066822,8.74631 12.22265,-0.64943 26.41789,-3.76459 28.13573,8.717 5.39377,8.2716 10.58833,8.52534 17.55727,6.03096 7.27287,-2.41613 0.17742,-14.27716 -7.20926,-24.07735 -4.94099,-14.58129 -3.29637,-28.28451 -0.0647,-41.776113 5.08042,-11.940206 1.63263,-29.699459 18.55102,-31.026314 7.19959,-0.56464 15.61512,6.756801 33.30835,8.804339 53.31229,-7.776225 55.48906,13.379485 69.48738,27.846692 17.33153,5.580216 22.64012,0.370601 29.70813,-3.260033 14.51228,14.712769 22.8389,16.495239 33.26526,14.047139 4.18941,-9.783033 11.43649,-17.272818 18.65878,-24.781192 15.92948,-20.254838 37.05526,-14.528155 58.30869,-8.163217 20.5396,-5.038445 38.21238,-0.520815 56.55943,1.749261 z"
         id="path18084"
         inkscape:connector-curvature="0"
         sodipodi:nodetypes="cscssccccssccccscccccccccccscsccccccccccccccscccccsccccccsccccccc" />
    </clipPath>
  </defs>
  <sodipodi:namedview
     id="base"
     pagecolor="#ffffff"
     bordercolor="#666666"
     borderopacity="1.0"
     inkscape:pageopacity="0.0"
     inkscape:pageshadow="2"
     inkscape:zoom="1.4098385"
     inkscape:cx="499.5603"
     inkscape:cy="306.41466"
     inkscape:document-units="px"
     inkscape:current-layer="g5503"
     showgrid="false"
     units="px"
     inkscape:window-width="1920"
     inkscape:window-height="1017"
     inkscape:window-x="-8"
     inkscape:window-y="-8"
     inkscape:window-maximized="1"
     showguides="true"
     inkscape:object-paths="true"
     inkscape:snap-intersection-paths="true"
     inkscape:object-nodes="true"
     inkscape:snap-smooth-nodes="true"
     inkscape:snap-global="false" />
  <metadata
     id="metadata3389">
    <rdf:RDF>
      <cc:Work
         rdf:about="">
        <dc:format>image/svg+xml</dc:format>
        <dc:type
           rdf:resource="http://purl.org/dc/dcmitype/StillImage" />
        <dc:title>NERD Caso 5</dc:title>
        <dc:creator>
          <cc:Agent>
            <dc:title>Luis Navarro</dc:title>
          </cc:Agent>
        </dc:creator>
        <dc:subject>
          <rdf:Bag>
            <rdf:li>NERD map island</rdf:li>
          </rdf:Bag>
        </dc:subject>
      </cc:Work>
    </rdf:RDF>
  </metadata>
  <g
     sodipodi:insensitive="true"
     style="display:inline"
     inkscape:label="base_blanca"
     id="g18086"
     inkscape:groupmode="layer">
    <path
       style="display:inline;fill:#ffffff;fill-opacity:1;fill-rule:evenodd;stroke:none;stroke-width:15;stroke-linecap:butt;stroke-linejoin:round;stroke-miterlimit:4;stroke-dasharray:none;stroke-opacity:1"
       d="m 460.05558,75.525792 c 8.926,4.435339 6.35006,-7.694972 -2.23581,-14.092542 -11.41292,-8.504083 0.72354,-18.147832 10.39903,-22.058848 -14.81645,-3.281774 -12.1669,-9.571442 -5.1253,-17.98133 13.35331,-15.9480486 21.89835,-14.1861033 30.85186,-13.8055278 32.08984,1.3640024 43.90576,5.4200878 66.08566,17.1330528 14.18867,7.492881 28.16261,19.924428 41.71469,42.058891 3.57525,15.905936 34.49358,6.253834 58.3451,12.003303 28.45901,-9.771038 86.84374,4.330209 46.1275,43.660789 16.73128,4.49141 34.14205,2.05274 49.11368,7.57239 15.68592,5.783 26.36936,21.95927 44.66327,27.72508 18.60705,5.8645 54.36588,1.11107 86.49695,-1.37839 23.36618,-0.24469 37.87289,19.02665 50.68713,32.49949 19.80169,2.2754 31.474,-2.13779 40.16919,38.13167 6.47128,11.20951 8.11993,20.66533 2.50833,27.48106 7.19839,10.101 13.39671,14.07984 12.23793,23.22574 -1.06472,8.40358 -6.60028,16.2962 -18.33962,23.47981 -18.27149,10.02027 -28.15068,4.09519 -35.50259,-6.63174 -32.20611,8.78536 -37.49293,16.50669 -54.3514,20.54296 -10.54689,17.32043 -11.92266,46.49374 -5.18918,68.88713 8.31261,17.02253 7.40972,53.84466 0.58308,59.47486 -12.87112,5.68402 -29.23133,12.06586 -34.98521,16.32644 -2.34019,15.57563 -3.70507,31.29059 4.6647,48.39621 4.69138,29.42399 -21.09381,39.45006 -37.02602,48.25045 -22.85478,6.19985 -43.24642,1.31554 -64.72265,1.31194 -10.01058,8.05665 -18.58768,16.83004 -27.07211,25.64976 -4.28974,23.21289 -30.74042,18.92958 -47.74239,23.05872 -21.48664,3.92179 -44.21042,-7.92703 -52.77047,-13.47161 -13.73729,-8.89801 -11.06065,-33.8059 -22.52758,-34.8569 -11.50094,9.06574 -28.12036,13.53949 -45.45656,15.32956 -18.09131,1.86803 -34.20981,3.36504 -47.86969,-7.54631 -4.53135,-6.92739 -15.25546,-12.16586 -25.65582,-17.49261 -14.71944,-5.69364 -31.62936,-2.62537 -43.41926,-20.03717 -21.70735,2.57809 -48.5411,12.63907 -56.65947,-1.50774 -8.58154,-14.48966 -19.46052,-24.5024 -28.75418,-41.42848 -7.16997,-11.23843 -4.41678,-23.88426 -0.61239,-37.31756 0.91262,-7.59682 -3.4502,-14.93869 -17.49261,-12.82791 -22.97097,-8.92484 -28.43591,-23.22293 -37.31756,-19.82496 -12.1625,7.53669 -14.26728,20.55941 -37.31756,22.15731 -2.32949,22.09851 2.99655,35.44783 8.16321,48.9793 -8.79904,13.28984 -19.70146,33.19891 -50.14547,22.76969 -16.14997,2.31679 -20.98022,17.04032 -58.30869,-9.32939 -12.19488,-7.65148 -27.54963,-10.78887 -32.65287,-28.57127 -25.965977,3.71357 -55.302264,-3.26503 -47.81313,-37.34686 3.628258,-7.42465 -5.238864,-9.7698 -9.848476,-22.76309 -3.301061,-9.30483 -2.430305,-29.18348 -2.396349,-36.71177 C 41.249011,346.66868 26.594271,329.168 33.819042,319.83922 34.006991,305.96118 1.682477,296.3978 7.58013,275.52461 11.670243,256.3709 11.135019,236.2401 25.655825,223.04679 49.749338,208.19264 37.491209,189.512 33.819042,171.73514 c 2.728142,-5.23242 5.539715,-9.96426 8.43549,-14.19089 7.839041,-11.44175 13.379693,-20.93049 22.468116,-24.87594 6.702438,-6.41896 23.947573,10.7217 39.066822,8.74631 12.22265,-0.64943 26.41789,-3.76459 28.13573,8.717 5.39377,8.2716 10.58833,8.52534 17.55727,6.03096 7.27287,-2.41613 0.17742,-14.27716 -7.20926,-24.07735 -4.94099,-14.58129 -3.29637,-28.28451 -0.0647,-41.776113 5.08042,-11.940206 1.63263,-29.699459 18.55102,-31.026314 7.19959,-0.56464 15.61512,6.756801 33.30835,8.804339 53.31229,-7.776225 55.48906,13.379485 69.48738,27.846692 17.33153,5.580216 22.64012,0.370601 29.70813,-3.260033 14.51228,14.712769 22.8389,16.495239 33.26526,14.047139 4.18941,-9.783033 11.43649,-17.272818 18.65878,-24.781192 15.92948,-20.254838 37.05526,-14.528155 58.30869,-8.163217 20.5396,-5.038445 38.21238,-0.520815 56.55943,1.749261 z"
       id="path18088"
       inkscape:connector-curvature="0"
       sodipodi:nodetypes="cscssccccssccccscccccccccccscsccccccccccccccscccccsccccccsccccccc" />
  </g>
  <g
     style="display:inline;opacity:1"
     inkscape:groupmode="layer"
     id="g10604"
     inkscape:label="curvas_difuminadas">
    <g
       id="g12945"
       style="display:inline;opacity:1"
       transform="translate(1.7295715e-6,-9.6120516e-8)" />
    <g
       id="g18058"
       clip-path="url(#clipPath18082)">
      <g
         style="filter:url(#filter17916)"
         id="g17827">
        <path
           sodipodi:nodetypes="caaaaac"
           inkscape:connector-curvature="0"
           id="path12947"
           d="M -162.34325,504.64943 C -31.972672,449.35078 -10.813202,485.1831 64.87384,474.837 c 51.02214,-6.97452 101.49652,-20.59204 152.95705,-21.74936 63.882,-1.43668 127.14318,13.29356 190.84807,18.43688 69.86489,5.64066 139.74635,12.92352 209.83511,13.62009 76.47424,0.76004 153.14488,-2.29878 229.2024,-10.30761 60.21029,-6.34013 161.41083,-23.18744 179.16613,-29.81243"
           style="fill:none;fill-rule:evenodd;stroke:url(#linearGradient10560);stroke-width:70;stroke-linecap:round;stroke-linejoin:miter;stroke-miterlimit:4;stroke-dasharray:none;stroke-opacity:1" />
        <path
           sodipodi:nodetypes="caaaac"
           inkscape:connector-curvature="0"
           id="path12949"
           d="m -111.06399,405.27467 c 87.161861,-38.09365 116.458975,-13.73063 174.323721,-23.18743 40.016559,-6.5399 78.977069,-21.0417 119.444029,-23.18744 77.10671,-4.08855 153.77608,14.56985 230.81751,19.87494 76.85974,5.29258 153.77701,12.35938 230.81752,11.92273 150.94667,-0.85553 342.19101,-13.57898 451.95051,-28.48519"
           style="fill:none;fill-rule:evenodd;stroke:url(#linearGradient5714);stroke-width:70;stroke-linecap:round;stroke-linejoin:miter;stroke-miterlimit:4;stroke-dasharray:none;stroke-opacity:1" />
        <path
           inkscape:connector-curvature="0"
           id="path12951"
           d="m 1030.1107,536.11809 c -128.32159,22.35932 -288.65815,34.98713 -363.17438,38.09366 -115.01658,4.79498 -266.03236,-33.43312 -399.59469,-31.12073 -131.8832,2.28333 -358.711976,30.22461 -393.33612,44.3707"
           style="fill:none;fill-rule:evenodd;stroke:url(#linearGradient10600);stroke-width:70;stroke-linecap:round;stroke-linejoin:miter;stroke-miterlimit:4;stroke-dasharray:none;stroke-opacity:1"
           sodipodi:nodetypes="csac" />
        <path
           sodipodi:nodetypes="caaaac"
           inkscape:connector-curvature="0"
           id="path12953"
           d="m -115.90632,332.39986 c 59.72202,-43.06239 129.585253,-30.98598 195.550472,-38.54429 77.493988,-8.87928 155.901898,-11.34215 233.802398,-7.8306 85.00601,3.83185 168.36659,28.80694 253.41504,31.46867 93.80575,2.93581 187.35589,-11.64086 281.05071,-17.16527 83.85865,-4.94445 206.4101,-14.3034 251.6051,-14.3034"
           style="fill:none;fill-rule:evenodd;stroke:url(#linearGradient11544);stroke-width:70;stroke-linecap:round;stroke-linejoin:miter;stroke-miterlimit:4;stroke-dasharray:none;stroke-opacity:1" />
        <path
           sodipodi:nodetypes="cassac"
           inkscape:connector-curvature="0"
           id="path12955"
           d="M -136.88972,254.55629 C 1.9236069,186.65022 19.774587,209.34486 100.38423,203.21268 c 63.2594,-4.8123 84.97284,18.3402 189.95844,11.67695 102.58154,-6.51069 172.27122,8.88386 326.55628,13.16674 71.66192,1.9893 151.59293,-15.12291 227.58931,-19.87495 102.10682,-6.38471 229.20334,1.65624 306.68064,-11.59373"
           style="fill:none;fill-rule:evenodd;stroke:url(#linearGradient11580);stroke-width:70;stroke-linecap:round;stroke-linejoin:miter;stroke-miterlimit:4;stroke-dasharray:none;stroke-opacity:1" />
        <path
           sodipodi:nodetypes="caaac"
           inkscape:connector-curvature="0"
           id="path12957"
           d="M -124.36851,163.69818 C 59.639869,114.01082 130.42887,140.621 258.17521,135.54201 c 91.93677,-3.65527 184.03454,-3.97456 276.01256,-1.65625 93.15465,2.34796 185.97566,18.27752 279.12607,15.75873 107.69375,-2.91205 321.32236,-35.63367 321.32236,-35.63367"
           style="fill:none;fill-rule:evenodd;stroke:url(#linearGradient5690);stroke-width:70;stroke-linecap:round;stroke-linejoin:miter;stroke-miterlimit:4;stroke-dasharray:none;stroke-opacity:1" />
        <path
           inkscape:connector-curvature="0"
           id="path12959"
           d="m -149.78629,57.296581 c 88.505826,-10.090702 252.991,-7.270623 379.52105,-8.908535 118.82292,-1.538145 251.45537,4.342052 356.49613,-0.862478 44.84718,-2.222075 121.56656,15.004668 182.63906,14.92859 C 877.08011,62.31936 1092.4121,35.197051 1092.4121,35.197051"
           style="fill:none;fill-rule:evenodd;stroke:url(#linearGradient10602);stroke-width:70;stroke-linecap:round;stroke-linejoin:miter;stroke-miterlimit:4;stroke-dasharray:none;stroke-opacity:1"
           sodipodi:nodetypes="casac" />
      </g>
      <g
         style="filter:url(#filter18026)"
         id="g17957">
        <path
           style="fill:none;fill-rule:evenodd;stroke:#299129;stroke-width:20;stroke-linecap:round;stroke-linejoin:miter;stroke-miterlimit:4;stroke-dasharray:none;stroke-opacity:1;filter:url(#filter17916)"
           d="M -162.34325,504.64943 C -31.972672,449.35078 -10.813202,485.1831 64.87384,474.837 c 51.02214,-6.97452 101.49652,-20.59204 152.95705,-21.74936 63.882,-1.43668 127.14318,13.29356 190.84807,18.43688 69.86489,5.64066 139.74635,12.92352 209.83511,13.62009 76.47424,0.76004 153.14488,-2.29878 229.2024,-10.30761 60.21029,-6.34013 161.41083,-23.18744 179.16613,-29.81243"
           id="path17922"
           inkscape:connector-curvature="0"
           sodipodi:nodetypes="caaaaac" />
        <path
           style="fill:none;fill-rule:evenodd;stroke:#299129;stroke-width:20;stroke-linecap:round;stroke-linejoin:miter;stroke-miterlimit:4;stroke-dasharray:none;stroke-opacity:1;filter:url(#filter17916)"
           d="m -111.06399,405.27467 c 87.161861,-38.09365 116.458975,-13.73063 174.323721,-23.18743 40.016559,-6.5399 78.977069,-21.0417 119.444029,-23.18744 77.10671,-4.08855 153.77608,14.56985 230.81751,19.87494 76.85974,5.29258 153.77701,12.35938 230.81752,11.92273 150.94667,-0.85553 342.19101,-13.57898 451.95051,-28.48519"
           id="path17924"
           inkscape:connector-curvature="0"
           sodipodi:nodetypes="caaaac" />
        <path
           sodipodi:nodetypes="csac"
           style="fill:none;fill-rule:evenodd;stroke:#299129;stroke-width:20;stroke-linecap:round;stroke-linejoin:miter;stroke-miterlimit:4;stroke-dasharray:none;stroke-opacity:1;filter:url(#filter17916)"
           d="m 1030.1107,536.11809 c -128.32159,22.35932 -288.65815,34.98713 -363.17438,38.09366 -115.01658,4.79498 -266.03236,-33.43312 -399.59469,-31.12073 -131.8832,2.28333 -358.711976,30.22461 -393.33612,44.3707"
           id="path17926"
           inkscape:connector-curvature="0" />
        <path
           style="fill:none;fill-rule:evenodd;stroke:#299129;stroke-width:20;stroke-linecap:round;stroke-linejoin:miter;stroke-miterlimit:4;stroke-dasharray:none;stroke-opacity:1;filter:url(#filter17916)"
           d="m -115.90632,332.39986 c 59.72202,-43.06239 129.585253,-30.98598 195.550472,-38.54429 77.493988,-8.87928 155.901898,-11.34215 233.802398,-7.8306 85.00601,3.83185 168.36659,28.80694 253.41504,31.46867 93.80575,2.93581 187.35589,-11.64086 281.05071,-17.16527 83.85865,-4.94445 206.4101,-14.3034 251.6051,-14.3034"
           id="path17928"
           inkscape:connector-curvature="0"
           sodipodi:nodetypes="caaaac" />
        <path
           style="fill:none;fill-rule:evenodd;stroke:#299129;stroke-width:20;stroke-linecap:round;stroke-linejoin:miter;stroke-miterlimit:4;stroke-dasharray:none;stroke-opacity:1;filter:url(#filter17916)"
           d="M -136.88972,254.55629 C 1.9236069,186.65022 19.774587,209.34486 100.38423,203.21268 c 63.2594,-4.8123 84.97284,18.3402 189.95844,11.67695 102.58154,-6.51069 172.27122,8.88386 326.55628,13.16674 71.66192,1.9893 151.59293,-15.12291 227.58931,-19.87495 102.10682,-6.38471 229.20334,1.65624 306.68064,-11.59373"
           id="path17930"
           inkscape:connector-curvature="0"
           sodipodi:nodetypes="cassac" />
        <path
           style="fill:none;fill-rule:evenodd;stroke:#299129;stroke-width:20;stroke-linecap:round;stroke-linejoin:miter;stroke-miterlimit:4;stroke-dasharray:none;stroke-opacity:1;filter:url(#filter17916)"
           d="M -124.36851,163.69818 C 59.639869,114.01082 130.42887,140.621 258.17521,135.54201 c 91.93677,-3.65527 184.03454,-3.97456 276.01256,-1.65625 93.15465,2.34796 185.97566,18.27752 279.12607,15.75873 107.69375,-2.91205 321.32236,-35.63367 321.32236,-35.63367"
           id="path17932"
           inkscape:connector-curvature="0"
           sodipodi:nodetypes="caaac" />
        <path
           sodipodi:nodetypes="casac"
           style="fill:none;fill-rule:evenodd;stroke:#299129;stroke-width:20;stroke-linecap:round;stroke-linejoin:miter;stroke-miterlimit:4;stroke-dasharray:none;stroke-opacity:1;filter:url(#filter17916)"
           d="m -149.78629,57.296581 c 88.505826,-10.090702 252.991,-7.270623 379.52105,-8.908535 118.82292,-1.538145 251.45537,4.342052 356.49613,-0.862478 44.84718,-2.222075 121.56656,15.004668 182.63906,14.92859 C 877.08011,62.31936 1092.4121,35.197051 1092.4121,35.197051"
           id="path17934"
           inkscape:connector-curvature="0" />
      </g>
    </g>
  </g>
  <g
     inkscape:groupmode="layer"
     id="g5503"
     inkscape:label="isla"
     style="display:inline">
    <path
       style="display:inline;fill:none;fill-rule:evenodd;stroke:#000000;stroke-width:15;stroke-linecap:butt;stroke-linejoin:round;stroke-miterlimit:4;stroke-dasharray:none;stroke-opacity:1"
       d="m 460.05558,75.525792 c 8.926,4.435339 6.35006,-7.694972 -2.23581,-14.092542 -11.41292,-8.504083 0.72354,-18.147832 10.39903,-22.058848 -14.81645,-3.281774 -12.1669,-9.571442 -5.1253,-17.98133 13.35331,-15.9480486 21.89835,-14.1861033 30.85186,-13.8055278 32.08984,1.3640024 43.90576,5.4200878 66.08566,17.1330528 14.18867,7.492881 28.16261,19.924428 41.71469,42.058891 3.57525,15.905936 34.49358,6.253834 58.3451,12.003303 28.45901,-9.771038 86.84374,4.330209 46.1275,43.660789 16.73128,4.49141 34.14205,2.05274 49.11368,7.57239 15.68592,5.783 26.36936,21.95927 44.66327,27.72508 18.60705,5.8645 54.36588,1.11107 86.49695,-1.37839 23.36618,-0.24469 37.87289,19.02665 50.68713,32.49949 19.80169,2.2754 31.474,-2.13779 40.16919,38.13167 6.47128,11.20951 8.11993,20.66533 2.50833,27.48106 7.19839,10.101 13.39671,14.07984 12.23793,23.22574 -1.06472,8.40358 -6.60028,16.2962 -18.33962,23.47981 -18.27149,10.02027 -28.15068,4.09519 -35.50259,-6.63174 -32.20611,8.78536 -37.49293,16.50669 -54.3514,20.54296 -10.54689,17.32043 -11.92266,46.49374 -5.18918,68.88713 8.31261,17.02253 7.40972,53.84466 0.58308,59.47486 -12.87112,5.68402 -29.23133,12.06586 -34.98521,16.32644 -2.34019,15.57563 -3.70507,31.29059 4.6647,48.39621 4.69138,29.42399 -21.09381,39.45006 -37.02602,48.25045 -22.85478,6.19985 -43.24642,1.31554 -64.72265,1.31194 -10.01058,8.05665 -18.58768,16.83004 -27.07211,25.64976 -4.28974,23.21289 -30.74042,18.92958 -47.74239,23.05872 -21.48664,3.92179 -44.21042,-7.92703 -52.77047,-13.47161 -13.73729,-8.89801 -11.06065,-33.8059 -22.52758,-34.8569 -11.50094,9.06574 -28.12036,13.53949 -45.45656,15.32956 -18.09131,1.86803 -34.20981,3.36504 -47.86969,-7.54631 -4.53135,-6.92739 -15.25546,-12.16586 -25.65582,-17.49261 -14.71944,-5.69364 -31.62936,-2.62537 -43.41926,-20.03717 -21.70735,2.57809 -48.5411,12.63907 -56.65947,-1.50774 -8.58154,-14.48966 -19.46052,-24.5024 -28.75418,-41.42848 -7.16997,-11.23843 -4.41678,-23.88426 -0.61239,-37.31756 0.91262,-7.59682 -3.4502,-14.93869 -17.49261,-12.82791 -22.97097,-8.92484 -28.43591,-23.22293 -37.31756,-19.82496 -12.1625,7.53669 -14.26728,20.55941 -37.31756,22.15731 -2.32949,22.09851 2.99655,35.44783 8.16321,48.9793 -8.79904,13.28984 -19.70146,33.19891 -50.14547,22.76969 -16.14997,2.31679 -20.98022,17.04032 -58.30869,-9.32939 -12.19488,-7.65148 -27.54963,-10.78887 -32.65287,-28.57127 -25.965977,3.71357 -55.302264,-3.26503 -47.81313,-37.34686 3.628258,-7.42465 -5.238864,-9.7698 -9.848476,-22.76309 -3.301061,-9.30483 -2.430305,-29.18348 -2.396349,-36.71177 C 41.249011,346.66868 26.594271,329.168 33.819042,319.83922 34.006991,305.96118 1.682477,296.3978 7.58013,275.52461 11.670243,256.3709 11.135019,236.2401 25.655825,223.04679 49.749338,208.19264 37.491209,189.512 33.819042,171.73514 c 2.728142,-5.23242 5.539715,-9.96426 8.43549,-14.19089 7.839041,-11.44175 13.379693,-20.93049 22.468116,-24.87594 6.702438,-6.41896 23.947573,10.7217 39.066822,8.74631 12.22265,-0.64943 26.41789,-3.76459 28.13573,8.717 5.39377,8.2716 10.58833,8.52534 17.55727,6.03096 7.27287,-2.41613 0.17742,-14.27716 -7.20926,-24.07735 -4.94099,-14.58129 -3.29637,-28.28451 -0.0647,-41.776113 5.08042,-11.940206 1.63263,-29.699459 18.55102,-31.026314 7.19959,-0.56464 15.61512,6.756801 33.30835,8.804339 53.31229,-7.776225 55.48906,13.379485 69.48738,27.846692 17.33153,5.580216 22.64012,0.370601 29.70813,-3.260033 14.51228,14.712769 22.8389,16.495239 33.26526,14.047139 4.18941,-9.783033 11.43649,-17.272818 18.65878,-24.781192 15.92948,-20.254838 37.05526,-14.528155 58.30869,-8.163217 20.5396,-5.038445 38.21238,-0.520815 56.55943,1.749261 z"
       id="path5505"
       inkscape:connector-curvature="0"
       sodipodi:nodetypes="cscssccccssccccscccccccccccscsccccccccccccccscccccsccccccsccccccc" />
  </g>
</svg>
