<?xml version="1.0" encoding="UTF-8" standalone="no"?>
<!-- Created with Inkscape (http://www.inkscape.org/) -->

<svg
   xmlns:dc="http://purl.org/dc/elements/1.1/"
   xmlns:cc="http://creativecommons.org/ns#"
   xmlns:rdf="http://www.w3.org/1999/02/22-rdf-syntax-ns#"
   xmlns:svg="http://www.w3.org/2000/svg"
   xmlns="http://www.w3.org/2000/svg"
   xmlns:sodipodi="http://sodipodi.sourceforge.net/DTD/sodipodi-0.dtd"
   xmlns:inkscape="http://www.inkscape.org/namespaces/inkscape"
   width="297mm"
   height="210mm"
   viewBox="0 0 1052.3622 744.09448"
   id="svg2"
   version="1.1"
   inkscape:version="0.91 r13725"
   sodipodi:docname="nerd_helicoptero.svg"
   inkscape:export-filename="C:\Users\analisis\Documents\Presentacion 2016_edit\NERD_helicoptero.png"
   inkscape:export-xdpi="200.05499"
   inkscape:export-ydpi="200.05499">
  <title
     id="title3342">NERD Helicoptero</title>
  <defs
     id="defs4" />
  <sodipodi:namedview
     id="base"
     pagecolor="#ffffff"
     bordercolor="#666666"
     borderopacity="1.0"
     inkscape:pageopacity="0.0"
     inkscape:pageshadow="2"
     inkscape:zoom="1.3159983"
     inkscape:cx="474.87653"
     inkscape:cy="218.34776"
     inkscape:document-units="px"
     inkscape:current-layer="layer2"
     showgrid="false"
     showguides="false"
     inkscape:window-width="1920"
     inkscape:window-height="1017"
     inkscape:window-x="-8"
     inkscape:window-y="-8"
     inkscape:window-maximized="1" />
  <metadata
     id="metadata7">
    <rdf:RDF>
      <cc:Work
         rdf:about="">
        <dc:format>image/svg+xml</dc:format>
        <dc:type
           rdf:resource="http://purl.org/dc/dcmitype/StillImage" />
        <dc:title>NERD Helicoptero</dc:title>
        <dc:subject>
          <rdf:Bag />
        </dc:subject>
      </cc:Work>
    </rdf:RDF>
  </metadata>
  <g
     inkscape:groupmode="layer"
     id="layer2"
     inkscape:label="drawing"
     style="display:inline">
    <path
       style="opacity:1;fill:none;fill-opacity:0.57142861;stroke:#000000;stroke-width:8;stroke-linecap:butt;stroke-linejoin:round;stroke-miterlimit:10;stroke-dasharray:none;stroke-opacity:1"
       d="m 598.50977,105.87891 a 2.50025,2.50025 0 0 0 -0.66211,0.11718 l -93.79102,28.35938 0,-1.11133 -10.00391,2.03711 c -0.0198,-1.70705 -1.45518,-2.54985 -3.07812,-2.55273 -2.1014,-0.004 -4.49758,1.39164 -4.49609,4.0957 l -9.56641,1.94726 0,1.9961 -140.85742,18.28906 a 2.50025,2.50025 0 1 0 0.64258,4.95898 L 458.08789,148.25391 339.25,184.18555 a 2.50025,2.50025 0 1 0 1.44727,4.78515 l 136.21484,-41.18554 0,0.57617 9.5625,-1.94727 0,3.93946 -25.45508,5.39453 c -3.24263,0.68721 -7.22761,2.24 -6.94726,5.81445 l -0.15235,4.75977 -137.6543,31.0625 c -5.28365,0.27109 -9.18481,0.72254 -13.30859,0.4375 l 4.87891,-12.375 a 3.0003,3.0003 0 0 0 -2.89453,-4.13672 3.0003,3.0003 0 0 0 -2.6875,1.93554 l -5.36133,13.59961 c -1.2011,-0.30174 -2.4582,-0.6705 -3.81446,-1.14258 l -27.13476,-10.61328 c -11.04086,-4.38891 -17.76338,7.72254 -9.61719,12.92383 l 28.92188,18.4668 c 1.08298,0.80748 2.15594,1.36063 3.22265,1.72851 l -5.0664,12.85157 a 3.0003,3.0003 0 1 0 5.58203,2.20117 l 5.76172,-14.61328 c 0.88396,-0.11651 1.7671,-0.27345 2.64843,-0.44727 l 10.52149,-3.50195 c 1.9405,-0.81335 3.88681,-1.63113 3.66015,-0.27734 l -11.01757,8.33593 c -10.54088,9.844 -1.36375,13.59036 8.20898,5.99219 l 23.61719,-18.98047 84.69726,-1.89648 c 2.86336,16.59632 22.98934,28.143 49.0879,30.17187 l 6.38085,13.45117 -24.29492,7.90625 0,8.04493 98.15625,-34.02149 c 1.0658,-0.36941 3.94479,-2.25375 4.48242,-2.87305 l 9.08008,-10.45898 c 1.62493,-1.94648 0.65299,-4.67255 -1.18164,-4.83789 -0.12231,-0.011 -0.24748,-0.0108 -0.37695,0.002 -0.47805,0.047 -1.0021,0.26334 -1.54492,0.69727 l -8.58594,9.24219 c -0.67364,0.72509 -2.99396,2.62973 -3.59766,2.82617 l -23.44726,7.6289 0,-7.5039 c 19.18481,-9.16567 31.9614,-23.42811 31.96093,-38.29492 10e-5,-18.46193 -19.86758,-32.61809 -48.28124,-35.07813 l 0.23828,-4.54492 c 0.10269,-1.96716 -2.06612,-2.9862 -4.4043,-2.83008 -0.33403,0.0223 -0.67103,0.0677 -1.00586,0.13867 l -5.54102,1.17383 -0.043,-3.86523 9.89062,-2.01368 0,-0.54882 94.91797,-12.32422 a 2.50025,2.50025 0 0 0 -0.2207,-4.98242 2.50025,2.50025 0 0 0 -0.42383,0.0234 l -80.73633,10.48243 81.70117,-24.70313 a 2.50025,2.50025 0 0 0 -0.78515,-4.90234 z m -81.83204,55.54687 c 17.15094,2.02924 32.25967,16.04169 32.92383,27.91016 l -32.4375,9.06054 -0.48633,-36.9707 z m -12.56054,16.94531 0,16.75586 -19.53907,4.9668 0,-16.75586 19.53907,-4.9668 z m 12.11914,51.98829 0.11719,6.88476 -36.69922,11.94141 -5.97852,-10.83008 c 3.86512,0.0286 7.8253,-0.13528 11.85742,-0.52344 11.05783,-1.06447 21.48573,-3.70363 30.70313,-7.47265 z m 13.95312,26.34765 c -22.54207,-0.21433 -83.12246,21.69728 -83.46289,37.06055 l 0,17.20898 c 0.14746,2.25631 5.19956,2.40631 12.81836,1.13086 l 31.11914,23.8711 c 2.45771,-3.90758 8.80734,-5.84071 13.27539,-5.96485 l 24.92969,-44.33789 c 5.83548,-3.72091 9.55037,-6.92632 9.64258,-8.6875 l 0,-16.24414 c 0.0571,-2.75848 -3.12025,-3.98765 -8.32227,-4.03711 z m 1.48438,5.44727 c 2.10484,0.0126 3.26309,0.38468 3.24609,1.1289 -0.0385,1.68388 -18.65094,13.23762 -41.6582,21.39844 -23.00725,8.16082 -42.1116,11.78328 -41.6582,8.1543 0.28864,-2.31026 18.65097,-13.23763 41.6582,-21.39844 17.25542,-6.12061 32.09759,-9.32105 38.41211,-9.2832 z m -25.94141,80.83789 -11.97265,0.54297 10.59765,31.17187 -16.7207,0.25781 29.38867,29.9336 14.83008,-30.61328 -17.36328,0.26757 -8.75977,-31.56054 z"
       id="path4148"
       inkscape:connector-curvature="0" />
    <path
       style="opacity:1;fill:#002877;fill-opacity:1;stroke:none;stroke-width:8;stroke-linecap:butt;stroke-linejoin:round;stroke-miterlimit:10;stroke-dasharray:none;stroke-opacity:1"
       d="m 598.50977,105.87891 a 2.50025,2.50025 0 0 0 -0.66211,0.11718 l -93.79102,28.35938 0,-1.11133 -10.00391,2.03711 c -0.0198,-1.70705 -1.45518,-2.54985 -3.07812,-2.55273 -2.1014,-0.004 -4.49758,1.39164 -4.49609,4.0957 l -9.56641,1.94726 0,1.9961 -140.85742,18.28906 a 2.50025,2.50025 0 1 0 0.64258,4.95898 L 458.08789,148.25391 339.25,184.18555 a 2.50025,2.50025 0 1 0 1.44727,4.78515 l 136.21484,-41.18554 0,0.57617 9.5625,-1.94727 0,3.93946 -25.45508,5.39453 c -3.24263,0.68721 -7.22761,2.24 -6.94726,5.81445 l -0.15235,4.75977 -137.6543,31.0625 c -5.28365,0.27109 -9.18481,0.72254 -13.30859,0.4375 l 4.87891,-12.375 a 3.0003,3.0003 0 0 0 -2.89453,-4.13672 3.0003,3.0003 0 0 0 -2.6875,1.93554 l -5.36133,13.59961 c -1.2011,-0.30174 -2.4582,-0.6705 -3.81446,-1.14258 l -27.13476,-10.61328 c -11.04086,-4.38891 -17.76338,7.72254 -9.61719,12.92383 l 28.92188,18.4668 c 1.08298,0.80748 2.15594,1.36063 3.22265,1.72851 l -5.0664,12.85157 a 3.0003,3.0003 0 1 0 5.58203,2.20117 l 5.76172,-14.61328 c 0.88396,-0.11651 1.7671,-0.27345 2.64843,-0.44727 l 10.52149,-3.50195 c 1.9405,-0.81335 3.88681,-1.63113 3.66015,-0.27734 l -11.01757,8.33593 c -10.54088,9.844 -1.36375,13.59036 8.20898,5.99219 l 23.61719,-18.98047 84.69726,-1.89648 c 2.86336,16.59632 22.98934,28.143 49.0879,30.17187 l 6.38085,13.45117 -24.29492,7.90625 0,8.04493 98.15625,-34.02149 c 1.0658,-0.36941 3.94479,-2.25375 4.48242,-2.87305 l 9.08008,-10.45898 c 1.62493,-1.94648 0.65299,-4.67255 -1.18164,-4.83789 -0.12231,-0.011 -0.24748,-0.0108 -0.37695,0.002 -0.47805,0.047 -1.0021,0.26334 -1.54492,0.69727 l -8.58594,9.24219 c -0.67364,0.72509 -2.99396,2.62973 -3.59766,2.82617 l -23.44726,7.6289 0,-7.5039 c 19.18481,-9.16567 31.9614,-23.42811 31.96093,-38.29492 10e-5,-18.46193 -19.86758,-32.61809 -48.28124,-35.07813 l 0.23828,-4.54492 c 0.10269,-1.96716 -2.06612,-2.9862 -4.4043,-2.83008 -0.33403,0.0223 -0.67103,0.0677 -1.00586,0.13867 l -5.54102,1.17383 -0.043,-3.86523 9.89062,-2.01368 0,-0.54882 94.91797,-12.32422 a 2.50025,2.50025 0 0 0 -0.2207,-4.98242 2.50025,2.50025 0 0 0 -0.42383,0.0234 l -80.73633,10.48243 81.70117,-24.70313 a 2.50025,2.50025 0 0 0 -0.78515,-4.90234 z m -81.83204,55.54687 c 17.15094,2.02924 32.25967,16.04169 32.92383,27.91016 l -32.4375,9.06054 -0.48633,-36.9707 z m -12.56054,16.94531 0,16.75586 -19.53907,4.9668 0,-16.75586 19.53907,-4.9668 z m 12.11914,51.98829 0.11719,6.88476 -36.69922,11.94141 -5.97852,-10.83008 c 3.86512,0.0286 7.8253,-0.13528 11.85742,-0.52344 11.05783,-1.06447 21.48573,-3.70363 30.70313,-7.47265 z m 13.95312,26.34765 c -22.54207,-0.21433 -83.12246,21.69728 -83.46289,37.06055 l 0,17.20898 c 0.14746,2.25631 5.19956,2.40631 12.81836,1.13086 l 31.11914,23.8711 c 2.45771,-3.90758 8.80734,-5.84071 13.27539,-5.96485 l 24.92969,-44.33789 c 5.83548,-3.72091 9.55037,-6.92632 9.64258,-8.6875 l 0,-16.24414 c 0.0571,-2.75848 -3.12025,-3.98765 -8.32227,-4.03711 z m 1.48438,5.44727 c 2.10484,0.0126 3.26309,0.38468 3.24609,1.1289 -0.0385,1.68388 -18.65094,13.23762 -41.6582,21.39844 -23.00725,8.16082 -42.1116,11.78328 -41.6582,8.1543 0.28864,-2.31026 18.65097,-13.23763 41.6582,-21.39844 17.25542,-6.12061 32.09759,-9.32105 38.41211,-9.2832 z m -25.94141,80.83789 -11.97265,0.54297 10.59765,31.17187 -16.7207,0.25781 29.38867,29.9336 14.83008,-30.61328 -17.36328,0.26757 -8.75977,-31.56054 z"
       id="path4206"
       inkscape:connector-curvature="0" />
    <circle
       style="opacity:1;fill:#000000;fill-opacity:1;stroke:none;stroke-width:5;stroke-linecap:round;stroke-linejoin:miter;stroke-miterlimit:4;stroke-dasharray:none;stroke-opacity:1"
       id="path4195"
       cx="295.50977"
       cy="207.69064"
       r="5.0389452" />
    <rect
       style="opacity:1;fill:none;fill-opacity:0.60119042;stroke:#000000;stroke-width:2.03048301;stroke-linecap:round;stroke-linejoin:miter;stroke-miterlimit:4;stroke-dasharray:none;stroke-opacity:1"
       id="rect4204"
       width="29.201345"
       height="47.595119"
       x="493.0575"
       y="305.19006"
       transform="matrix(0.96771296,-0.25205481,0.0100613,0.99994938,0,0)"
       ry="3.6846805"
       rx="3.6861465" />
    <path
       style="fill:#000000;fill-rule:evenodd;stroke:none;stroke-width:1px;stroke-linecap:butt;stroke-linejoin:miter;stroke-opacity:1"
       d="m 697.32031,248.04297 c 1.83446,2.3135 3.43346,4.86389 4.75977,7.68555 l -95.38867,21.94726 3.65625,4.61719 92.70507,-24.30859 c 1.00995,2.55235 1.81125,5.31199 2.34766,8.33789 l 34.63477,-18.2793 -42.71485,0 z"
       id="path4228"
       inkscape:connector-curvature="0" />
    <path
       style="fill:#002877;fill-opacity:1;fill-rule:evenodd;stroke:none;stroke-width:1px;stroke-linecap:butt;stroke-linejoin:miter;stroke-opacity:1"
       d="m 244.75452,637.11059 c -19.77737,-16.16304 -48.62143,-32.32607 -78.50616,-48.48911 222.308,-119.91861 442.73006,-232.58359 638.82469,-251.68153 33.35229,9.49257 66.70459,18.98515 100.05688,28.47772 -218.17734,42.84328 -438.09534,128.33279 -660.37541,271.69292 z"
       id="path4237"
       inkscape:connector-curvature="0"
       sodipodi:nodetypes="ccccc" />
    <path
       style="color:#000000;font-style:normal;font-variant:normal;font-weight:normal;font-stretch:normal;font-size:medium;line-height:normal;font-family:sans-serif;text-indent:0;text-align:start;text-decoration:none;text-decoration-line:none;text-decoration-style:solid;text-decoration-color:#000000;letter-spacing:normal;word-spacing:normal;text-transform:none;direction:ltr;block-progression:tb;writing-mode:lr-tb;baseline-shift:baseline;text-anchor:start;white-space:normal;clip-rule:nonzero;display:inline;overflow:visible;visibility:visible;opacity:1;isolation:auto;mix-blend-mode:normal;color-interpolation:sRGB;color-interpolation-filters:linearRGB;solid-color:#000000;solid-opacity:1;fill:#00ffff;fill-opacity:1;fill-rule:evenodd;stroke:none;stroke-width:5;stroke-linecap:butt;stroke-linejoin:miter;stroke-miterlimit:4;stroke-dasharray:none;stroke-dashoffset:0;stroke-opacity:1;color-rendering:auto;image-rendering:auto;shape-rendering:auto;text-rendering:auto;enable-background:accumulate"
       d="m 526.85938,412.00586 c -1.71033,0.68867 -3.42263,1.38639 -5.13477,2.08203 l 54.30859,49.66602 c 1.71452,-0.6962 3.42831,-1.38217 5.14258,-2.07227 l -54.3164,-49.67578 z m -117.2168,51.5625 c -1.61661,0.76353 -3.23581,1.5369 -4.85352,2.30469 l 53.80078,50.33789 c 1.60364,-0.78211 3.20714,-1.56918 4.81055,-2.34571 l -53.75781,-50.29687 z m -112.5918,55.79687 c -1.57343,0.81079 -3.14468,1.61257 -4.71875,2.42579 l 55.98828,52.5625 c 1.52154,-0.86339 3.04314,-1.71606 4.56446,-2.57422 l -55.83399,-52.41407 z"
       id="path4239"
       inkscape:connector-curvature="0" />
    <g
       transform="matrix(0.89013746,-0.45569211,0.45569211,0.89013746,0,0)"
       style="font-style:italic;font-variant:normal;font-weight:normal;font-stretch:normal;font-size:40px;line-height:125%;font-family:'Times New Roman';-inkscape-font-specification:'Times New Roman, Italic';text-align:start;letter-spacing:0px;word-spacing:0px;writing-mode:lr-tb;text-anchor:start;fill:#ffffff;fill-opacity:1;stroke:none;stroke-width:1px;stroke-linecap:butt;stroke-linejoin:miter;stroke-opacity:1"
       id="text4170">
      <path
         d="m 227.32965,643.12915 q -0.39062,-0.60547 -1.79687,-2.22656 -2.44141,-2.79297 -2.44141,-4.78516 0,-1.91406 1.26953,-2.98828 1.26953,-1.09375 3.51563,-1.09375 1.99218,0 3.55468,0.85938 1.5625,0.85937 1.5625,2.03125 0,0.64453 -0.46875,1.05468 -0.44922,0.39063 -1.07422,0.39063 -0.9375,0 -1.69921,-1.19141 -0.97657,-1.52344 -1.60157,-1.85547 -0.625,-0.33203 -1.30859,-0.33203 -1.07422,0 -1.77734,0.6836 -0.6836,0.66406 -0.6836,1.69921 0,0.83985 0.54688,1.64063 0.54687,0.78125 2.53906,2.51953 2.20703,1.93359 3.28125,3.82813 1.09375,1.89453 1.09375,4.6289 0,4.49219 -3.35938,8.39844 -3.33984,3.88672 -7.38281,3.88672 -2.69531,0 -4.17969,-1.64063 -1.48437,-1.66015 -1.48437,-4.33593 0,-3.8086 2.94922,-6.875 2.94922,-3.06641 8.94531,-4.29688 z m 0.39063,0.74219 q -3.26172,0.625 -5.21485,2.53906 -1.95312,1.89453 -2.94922,4.43359 -0.99609,2.51954 -0.99609,4.82422 0,3.67188 2.85156,3.67188 3.00781,0 5.07813,-4.29688 2.07031,-4.29687 2.07031,-7.79297 0,-1.89453 -0.83984,-3.3789 z"
         style="font-style:italic;font-variant:normal;font-weight:normal;font-stretch:normal;font-family:'Times New Roman';-inkscape-font-specification:'Times New Roman, Italic';fill:#ffffff"
         id="path4247" />
      <path
         d="m 239.47809,642.13306 q 0.66406,1.13281 0.91797,2.1289 0.2539,0.97657 0.50781,3.86719 l 0.85937,9.60938 q 1.17188,-1.40625 3.39844,-4.45313 1.07422,-1.48437 2.65625,-4.04297 0.95703,-1.5625 1.17188,-2.1875 0.11718,-0.3125 0.11718,-0.64453 0,-0.21484 -0.13671,-0.35156 -0.13672,-0.13672 -0.72266,-0.3125 -0.56641,-0.19531 -0.95703,-0.6836 -0.3711,-0.50781 -0.3711,-1.15234 0,-0.80078 0.46875,-1.28906 0.46875,-0.48828 1.17188,-0.48828 0.85937,0 1.46484,0.72265 0.60547,0.70313 0.60547,1.95313 0,1.54297 -1.05469,3.53515 -1.05468,1.97266 -4.0625,6.07422 -3.00781,4.10157 -7.28515,8.94532 -2.94922,3.33984 -4.375,4.19921 -1.42578,0.87891 -2.44141,0.87891 -0.60547,0 -1.05469,-0.46875 -0.46875,-0.44922 -0.46875,-1.05469 0,-0.76172 0.64454,-1.38672 0.625,-0.625 1.36718,-0.625 0.39063,0 0.64453,0.17579 0.15625,0.0977 0.35157,0.54687 0.17578,0.46875 0.33203,0.625 0.0976,0.0977 0.23437,0.0977 0.11719,0 0.41016,-0.19532 1.07422,-0.66406 2.5,-2.10937 1.875,-1.91406 2.77344,-3.125 l -1.09375,-12.38281 q -0.27344,-3.06641 -0.82032,-3.73047 -0.54687,-0.66406 -1.83593,-0.66406 -0.41016,0 -1.46485,0.11718 l -0.17578,-0.72265 5.72266,-1.40625 z"
         style="font-style:italic;font-variant:normal;font-weight:normal;font-stretch:normal;font-family:'Times New Roman';-inkscape-font-specification:'Times New Roman, Italic';fill:#ffffff"
         id="path4249" />
    </g>
    <g
       transform="matrix(0.66112876,0.75027246,-0.75027246,0.66112876,0,0)"
       style="font-style:italic;font-variant:normal;font-weight:normal;font-stretch:normal;font-size:40px;line-height:125%;font-family:'Times New Roman';-inkscape-font-specification:'Times New Roman, Italic';text-align:start;letter-spacing:0px;word-spacing:0px;writing-mode:lr-tb;text-anchor:start;fill:#ffffff;fill-opacity:1;stroke:none;stroke-width:1px;stroke-linecap:butt;stroke-linejoin:miter;stroke-opacity:1"
       id="text4174">
      <path
         d="m 654.38916,8.4510021 1.34766,14.6484379 q 3.39843,-3.984375 5.42968,-7.480469 1.19141,-2.050781 1.19141,-2.96875 0,-0.429688 -0.19531,-0.761719 -0.0781,-0.175781 -0.625,-0.507812 -0.52735,-0.351563 -0.74219,-0.703125 -0.21484,-0.371094 -0.21484,-0.7812504 0,-0.6054687 0.44922,-1.015625 0.44921,-0.4296875 1.15234,-0.4296875 0.80078,0 1.34766,0.6054688 0.5664,0.5859375 0.5664,1.5820311 0,1.015625 -0.29297,1.894531 -0.58593,1.679688 -2.28515,4.335938 -2.07032,3.183594 -4.27735,5.917969 -2.1875,2.714843 -3.26172,3.808593 l -0.72265,0 -1.26953,-13.515625 -8.06641,13.515625 -0.85937,0 q -0.13672,-8.339843 -0.83985,-13.164062 -0.29297,-2.011719 -0.97656,-2.636719 -0.48828,-0.449219 -1.48438,-0.449219 -0.5664,0 -1.44531,0.117188 l 0,-0.7031251 5.60547,-1.3085938 q 1.17188,3.2617189 1.52344,10.0195309 0.11719,2.558594 0.19531,3.222657 l 8.02734,-13.2421879 0.72266,0 z"
         style="font-style:italic;font-variant:normal;font-weight:normal;font-stretch:normal;font-family:'Times New Roman';-inkscape-font-specification:'Times New Roman, Italic';fill:#ffffff"
         id="path4252" />
    </g>
    <path
       inkscape:connector-curvature="0"
       id="path4264"
       style="font-style:italic;font-variant:normal;font-weight:normal;font-stretch:normal;font-size:medium;line-height:125%;font-family:'Times New Roman';-inkscape-font-specification:'Times New Roman, Italic';text-align:start;letter-spacing:0px;word-spacing:0px;writing-mode:lr-tb;text-anchor:start;fill:#ffffff;fill-opacity:1;stroke:none;stroke-width:1px;stroke-linecap:butt;stroke-linejoin:miter;stroke-opacity:1"
       d="m 252.3269,559.89667 -2.01171,22.03125 q -0.15625,1.54297 -0.15625,2.03125 0,0.78125 0.29296,1.1914 0.3711,0.56641 0.9961,0.83985 0.64453,0.27343 2.14844,0.27343 l -0.21485,0.72266 -10.42969,0 0.21485,-0.72266 0.44922,0 q 1.26953,0 2.07031,-0.54687 0.56641,-0.37109 0.87891,-1.23047 0.21484,-0.60547 0.41015,-2.85156 l 0.3125,-3.35938 -7.57812,0 -2.69532,3.65235 q -0.91796,1.23047 -1.15234,1.77734 -0.23437,0.52734 -0.23437,0.99609 0,0.625 0.50781,1.07422 0.50781,0.44922 1.67969,0.48828 l -0.21485,0.72266 -7.83203,0 0.21484,-0.72266 q 1.44532,-0.0586 2.53907,-0.95703 1.11328,-0.91797 3.30078,-3.88672 l 15.82031,-21.52343 0.68359,0 z m -3.86718,6.5039 -7.67578,10.44922 6.66015,0 1.01563,-10.44922 z" />
    <path
       style="font-style:normal;font-variant:normal;font-weight:normal;font-stretch:normal;font-size:medium;line-height:125%;font-family:'Times New Roman';-inkscape-font-specification:'Times New Roman, ';text-align:start;letter-spacing:0px;word-spacing:0px;writing-mode:lr-tb;text-anchor:start;fill:#ffffff;fill-opacity:1;stroke:none;stroke-width:1px;stroke-linecap:butt;stroke-linejoin:miter;stroke-opacity:1"
       d="M 278.70898 578.91016 L 275.83594 580.08984 L 276.01562 580.45703 C 276.29619 580.34481 276.52662 580.28906 276.70898 580.28906 C 276.87732 580.28906 277.01589 580.3346 277.12109 580.42578 C 277.23335 580.51696 277.31226 580.68891 277.36133 580.94141 C 277.41039 581.18689 277.43555 581.8523 277.43555 582.93945 L 277.43555 591.69336 C 277.43555 592.28954 277.39001 592.69192 277.29883 592.90234 C 277.20765 593.11276 277.08124 593.26429 276.91992 593.35547 C 276.7586 593.44666 276.4575 593.49219 276.01562 593.49219 L 276.01562 593.87109 L 280.74023 593.87109 L 280.74023 593.49219 C 280.24225 593.49219 279.90111 593.4439 279.71875 593.3457 C 279.53638 593.2405 279.39977 593.08896 279.30859 592.89258 C 279.22443 592.69618 279.18164 592.29655 279.18164 591.69336 L 279.18164 578.91016 L 278.70898 578.91016 z M 284.68555 578.91016 L 281.8125 580.08984 L 281.99219 580.45703 C 282.27274 580.34481 282.50319 580.28906 282.68555 580.28906 C 282.85388 580.28906 282.9905 580.3346 283.0957 580.42578 C 283.20796 580.51696 283.28882 580.68891 283.33789 580.94141 C 283.38696 581.18689 283.41211 581.8523 283.41211 582.93945 L 283.41211 591.69336 C 283.41211 592.28954 283.36657 592.69192 283.27539 592.90234 C 283.18421 593.11276 283.0578 593.26429 282.89648 593.35547 C 282.73516 593.44666 282.43406 593.49219 281.99219 593.49219 L 281.99219 593.87109 L 286.71484 593.87109 L 286.71484 593.49219 C 286.21686 593.49219 285.87767 593.4439 285.69531 593.3457 C 285.51295 593.2405 285.37634 593.08896 285.28516 592.89258 C 285.20099 592.69618 285.1582 592.29655 285.1582 591.69336 L 285.1582 578.91016 L 284.68555 578.91016 z M 270.89258 583.93945 C 269.61604 583.93945 268.55181 584.40229 267.70312 585.32812 C 266.86146 586.24695 266.44141 587.53143 266.44141 589.17969 C 266.44141 590.7017 266.85125 591.91357 267.67188 592.81836 C 268.49952 593.71614 269.4931 594.16602 270.65039 594.16602 C 271.7165 594.16602 272.60409 593.77383 273.3125 592.98828 C 274.0209 592.19571 274.44841 591.31832 274.5957 590.35742 L 274.26953 590.14648 C 273.95391 590.98815 273.55978 591.58485 273.08984 591.93555 C 272.62692 592.27923 272.08047 592.45117 271.44922 592.45117 C 270.50235 592.45117 269.67796 592.04408 268.97656 591.23047 C 268.27519 590.41686 267.92855 589.29411 267.93555 587.86328 L 274.5957 587.86328 C 274.5957 586.67092 274.24711 585.72013 273.55273 585.01172 C 272.85835 584.29631 271.97271 583.93945 270.89258 583.93945 z M 261.42383 583.94922 C 260.16133 583.94922 259.07666 584.42422 258.17188 585.37109 C 257.27409 586.31797 256.82617 587.5475 256.82617 589.0625 C 256.82617 590.6266 257.23326 591.86829 258.04688 592.78711 C 258.86048 593.70593 259.81404 594.16602 260.9082 594.16602 C 261.82702 594.16602 262.66438 593.82488 263.42188 593.14453 C 264.17937 592.45717 264.68775 591.48045 264.94727 590.21094 L 264.64258 590.0625 C 264.27786 590.91118 263.90334 591.49767 263.51758 591.82031 C 262.97049 592.29025 262.35338 592.52539 261.66602 592.52539 C 260.70512 592.52539 259.93922 592.08572 259.37109 591.20898 C 258.80998 590.32524 258.5293 589.30848 258.5293 588.1582 C 258.5293 587.02897 258.81469 586.12095 259.38281 585.43359 C 259.81066 584.91456 260.37478 584.6543 261.07617 584.6543 C 261.51103 584.6543 261.85022 584.76028 262.0957 584.9707 C 262.34119 585.18813 262.48251 585.50415 262.51758 585.91797 C 262.55966 586.33179 262.64053 586.61247 262.75977 586.75977 C 262.97018 587.02629 263.28149 587.1582 263.69531 587.1582 C 264.00393 587.1582 264.24182 587.07734 264.41016 586.91602 C 264.5855 586.74768 264.67383 586.53215 264.67383 586.26562 C 264.67383 585.72556 264.36802 585.20502 263.75781 584.70703 C 263.14761 584.20203 262.37071 583.94922 261.42383 583.94922 z M 270.30273 584.6875 C 270.68148 584.6875 271.04304 584.799 271.38672 585.02344 C 271.73742 585.24788 272.00043 585.55644 272.17578 585.94922 C 272.288 586.20172 272.36142 586.63669 272.39648 587.25391 L 267.93555 587.25391 C 268.0127 586.44731 268.27847 585.81998 268.73438 585.37109 C 269.1973 584.91519 269.72058 584.6875 270.30273 584.6875 z "
       id="path4255" />
  </g>
</svg>
