<?xml version="1.0" encoding="UTF-8" standalone="no"?>
<!-- Created with Inkscape (http://www.inkscape.org/) -->

<svg
   xmlns:dc="http://purl.org/dc/elements/1.1/"
   xmlns:cc="http://creativecommons.org/ns#"
   xmlns:rdf="http://www.w3.org/1999/02/22-rdf-syntax-ns#"
   xmlns:svg="http://www.w3.org/2000/svg"
   xmlns="http://www.w3.org/2000/svg"
   xmlns:sodipodi="http://sodipodi.sourceforge.net/DTD/sodipodi-0.dtd"
   xmlns:inkscape="http://www.inkscape.org/namespaces/inkscape"
   width="1000"
   height="613.71503"
   viewBox="0 0 1000 613.71502"
   id="svg3384"
   version="1.1"
   inkscape:version="0.91 r13725"
   sodipodi:docname="nerd_caso2.svg"
   inkscape:export-filename="nerd_caso2.png"
   inkscape:export-xdpi="150.16742"
   inkscape:export-ydpi="150.16742">
  <title
     id="title3359">NERD Caso 2</title>
  <defs
     id="defs3386">
    <clipPath
       clipPathUnits="userSpaceOnUse"
       id="clipPath6069">
      <path
         sodipodi:nodetypes="cscssccccssccccscccccccccccscsccccccccccccccscccccsccccccsccccccc"
         inkscape:connector-curvature="0"
         id="path6071"
         d="m 460.05558,75.525792 c 8.926,4.435339 6.35006,-7.694972 -2.23581,-14.092542 -11.41292,-8.504083 0.72354,-18.147832 10.39903,-22.058848 -14.81645,-3.281774 -12.1669,-9.571442 -5.1253,-17.98133 13.35331,-15.9480486 21.89835,-14.1861033 30.85186,-13.8055278 32.08984,1.3640024 43.90576,5.4200878 66.08566,17.1330528 14.18867,7.492881 28.16261,19.924428 41.71469,42.058891 3.57525,15.905936 34.49358,6.253834 58.3451,12.003303 28.45901,-9.771038 86.84374,4.330209 46.1275,43.660789 16.73128,4.49141 34.14205,2.05274 49.11368,7.57239 15.68592,5.783 26.36936,21.95927 44.66327,27.72508 18.60705,5.8645 54.36588,1.11107 86.49695,-1.37839 23.36618,-0.24469 37.87289,19.02665 50.68713,32.49949 19.80169,2.2754 31.474,-2.13779 40.16919,38.13167 6.47128,11.20951 8.11993,20.66533 2.50833,27.48106 7.19839,10.101 13.39671,14.07984 12.23793,23.22574 -1.06472,8.40358 -6.60028,16.2962 -18.33962,23.47981 -18.27149,10.02027 -28.15068,4.09519 -35.50259,-6.63174 -32.20611,8.78536 -37.49293,16.50669 -54.3514,20.54296 -10.54689,17.32043 -11.92266,46.49374 -5.18918,68.88713 8.31261,17.02253 7.40972,53.84466 0.58308,59.47486 -12.87112,5.68402 -29.23133,12.06586 -34.98521,16.32644 -2.34019,15.57563 -3.70507,31.29059 4.6647,48.39621 4.69138,29.42399 -21.09381,39.45006 -37.02602,48.25045 -22.85478,6.19985 -43.24642,1.31554 -64.72265,1.31194 -10.01058,8.05665 -18.58768,16.83004 -27.07211,25.64976 -4.28974,23.21289 -30.74042,18.92958 -47.74239,23.05872 -21.48664,3.92179 -44.21042,-7.92703 -52.77047,-13.47161 -13.73729,-8.89801 -11.06065,-33.8059 -22.52758,-34.8569 -11.50094,9.06574 -28.12036,13.53949 -45.45656,15.32956 -18.09131,1.86803 -34.20981,3.36504 -47.86969,-7.54631 -4.53135,-6.92739 -15.25546,-12.16586 -25.65582,-17.49261 -14.71944,-5.69364 -31.62936,-2.62537 -43.41926,-20.03717 -21.70735,2.57809 -48.5411,12.63907 -56.65947,-1.50774 -8.58154,-14.48966 -19.46052,-24.5024 -28.75418,-41.42848 -7.16997,-11.23843 -4.41678,-23.88426 -0.61239,-37.31756 0.91262,-7.59682 -3.4502,-14.93869 -17.49261,-12.82791 -22.97097,-8.92484 -28.43591,-23.22293 -37.31756,-19.82496 -12.1625,7.53669 -14.26728,20.55941 -37.31756,22.15731 -2.32949,22.09851 2.99655,35.44783 8.16321,48.9793 -8.79904,13.28984 -19.70146,33.19891 -50.14547,22.76969 -16.14997,2.31679 -20.98022,17.04032 -58.30869,-9.32939 -12.19488,-7.65148 -27.54963,-10.78887 -32.65287,-28.57127 -25.965977,3.71357 -55.302264,-3.26503 -47.81313,-37.34686 3.628258,-7.42465 -5.238864,-9.7698 -9.848476,-22.76309 -3.301061,-9.30483 -2.430305,-29.18348 -2.396349,-36.71177 C 41.249011,346.66868 26.594271,329.168 33.819042,319.83922 34.006991,305.96118 1.682477,296.3978 7.58013,275.52461 11.670243,256.3709 11.135019,236.2401 25.655825,223.04679 49.749338,208.19264 37.491209,189.512 33.819042,171.73514 c 2.728142,-5.23242 5.539715,-9.96426 8.43549,-14.19089 7.839041,-11.44175 13.379693,-20.93049 22.468116,-24.87594 6.702438,-6.41896 23.947573,10.7217 39.066822,8.74631 12.22265,-0.64943 26.41789,-3.76459 28.13573,8.717 5.39377,8.2716 10.58833,8.52534 17.55727,6.03096 7.27287,-2.41613 0.17742,-14.27716 -7.20926,-24.07735 -4.94099,-14.58129 -3.29637,-28.28451 -0.0647,-41.776113 5.08042,-11.940206 1.63263,-29.699459 18.55102,-31.026314 7.19959,-0.56464 15.61512,6.756801 33.30835,8.804339 53.31229,-7.776225 55.48906,13.379485 69.48738,27.846692 17.33153,5.580216 22.64012,0.370601 29.70813,-3.260033 14.51228,14.712769 22.8389,16.495239 33.26526,14.047139 4.18941,-9.783033 11.43649,-17.272818 18.65878,-24.781192 15.92948,-20.254838 37.05526,-14.528155 58.30869,-8.163217 20.5396,-5.038445 38.21238,-0.520815 56.55943,1.749261 z"
         style="display:inline;fill:none;fill-rule:evenodd;stroke:#000000;stroke-width:15;stroke-linecap:butt;stroke-linejoin:round;stroke-miterlimit:4;stroke-dasharray:none;stroke-opacity:1" />
    </clipPath>
    <clipPath
       clipPathUnits="userSpaceOnUse"
       id="clipPath6169">
      <path
         style="display:inline;fill:none;fill-rule:evenodd;stroke:#000000;stroke-width:15;stroke-linecap:butt;stroke-linejoin:round;stroke-miterlimit:4;stroke-dasharray:none;stroke-opacity:1"
         d="m 642.83219,-686.31052 c 8.926,4.43534 6.35006,-7.69497 -2.23581,-14.09254 -11.41292,-8.50408 0.72354,-18.14783 10.39903,-22.05885 -14.81645,-3.28177 -12.1669,-9.57144 -5.1253,-17.98133 13.35331,-15.94805 21.89835,-14.1861 30.85186,-13.80553 32.08984,1.36401 43.90576,5.42009 66.08566,17.13306 14.18867,7.49288 28.16261,19.92443 41.71469,42.05889 3.57525,15.90593 34.49358,6.25383 58.3451,12.0033 28.45901,-9.77104 86.84374,4.33021 46.1275,43.66079 16.73128,4.49141 34.14205,2.05274 49.11368,7.57239 15.68592,5.783 26.36936,21.95927 44.66327,27.72508 18.60703,5.8645 54.36583,1.11107 86.49693,-1.37839 23.3662,-0.24469 37.8729,19.02665 50.6872,32.49949 19.8016,2.2754 31.474,-2.13779 40.1691,38.13167 6.4713,11.20951 8.12,20.66533 2.5084,27.48106 7.1984,10.101 13.3967,14.07984 12.2379,23.22574 -1.0647,8.40358 -6.6003,16.2962 -18.3396,23.47981 -18.2715,10.02027 -28.1507,4.09519 -35.5026,-6.63174 -32.2061,8.78536 -37.4929,16.50669 -54.3514,20.54296 -10.5469,17.32043 -11.9227,46.49374 -5.1892,68.88713 8.3126,17.02253 7.4097,53.84466 0.5831,59.47486 -12.8711,5.68402 -29.2313,12.06586 -34.9852,16.32644 -2.3402,15.57563 -3.7051,31.29059 4.6647,48.39621 4.6914,29.42399 -21.0938,39.45006 -37.02604,48.25045 -22.85478,6.19985 -43.24642,1.31554 -64.72265,1.31194 -10.01058,8.05665 -18.58768,16.83004 -27.07211,25.64976 -4.28974,23.21289 -30.74042,18.92958 -47.74239,23.05872 -21.48664,3.92179 -44.21042,-7.92703 -52.77047,-13.47161 -13.73729,-8.89801 -11.06065,-33.8059 -22.52758,-34.8569 -11.50094,9.06574 -28.12036,13.53949 -45.45656,15.32956 -18.09131,1.86803 -34.20981,3.36504 -47.86969,-7.54631 -4.53135,-6.92739 -15.25546,-12.16586 -25.65582,-17.49261 -14.71944,-5.69364 -31.62936,-2.62537 -43.41926,-20.03717 -21.70735,2.57809 -48.5411,12.63907 -56.65947,-1.50774 -8.58154,-14.48966 -19.46052,-24.5024 -28.75418,-41.42848 -7.16997,-11.23843 -4.41678,-23.88426 -0.61239,-37.31756 0.91262,-7.59682 -3.4502,-14.93869 -17.49261,-12.82791 -22.97097,-8.92484 -28.43591,-23.22293 -37.31756,-19.82496 -12.1625,7.53669 -14.26728,20.55941 -37.31756,22.15731 -2.32949,22.09851 2.99655,35.44783 8.16321,48.9793 -8.79904,13.28984 -19.70146,33.19891 -50.14547,22.76969 -16.14997,2.31679 -20.98022,17.04032 -58.30869,-9.32939 -12.19488,-7.65148 -27.54963,-10.78887 -32.65287,-28.57127 -25.96598,3.71357 -55.30226,-3.26503 -47.81313,-37.34686 3.62826,-7.42465 -5.23886,-9.7698 -9.84848,-22.76309 -3.30106,-9.30483 -2.4303,-29.18348 -2.39634,-36.71177 -22.30747,-27.98071 -36.96221,-45.48139 -29.73744,-54.81017 0.18795,-13.87804 -32.13656,-23.44142 -26.23891,-44.31461 4.09011,-19.15371 3.55489,-39.28451 18.07569,-52.47782 24.09352,-14.85415 11.83539,-33.53479 8.16322,-51.31165 2.72814,-5.23242 5.53972,-9.96426 8.43549,-14.19089 7.83904,-11.44175 13.3797,-20.93049 22.46812,-24.87594 6.70244,-6.41896 23.94757,10.7217 39.06682,8.74631 12.22265,-0.64943 26.41789,-3.76459 28.13573,8.717 5.39377,8.2716 10.58833,8.52534 17.55727,6.03096 7.27287,-2.41613 0.17742,-14.27716 -7.20926,-24.07735 -4.94099,-14.58129 -3.29637,-28.28451 -0.0647,-41.77611 5.08042,-11.94021 1.63263,-29.69946 18.55102,-31.02632 7.19959,-0.56464 15.61512,6.7568 33.30835,8.80434 53.31229,-7.77622 55.48906,13.37949 69.48738,27.84669 17.33153,5.58022 22.64012,0.3706 29.70813,-3.26003 14.51228,14.71277 22.8389,16.49524 33.26526,14.04714 4.18941,-9.78303 11.43649,-17.27282 18.65878,-24.78119 15.92948,-20.25484 37.05526,-14.52816 58.30869,-8.16322 20.5396,-5.03844 38.21238,-0.52081 56.55943,1.74926 z"
         id="path6171"
         inkscape:connector-curvature="0"
         sodipodi:nodetypes="cscssccccssccccscccccccccccscsccccccccccccccscccccsccccccsccccccc" />
    </clipPath>
    <clipPath
       clipPathUnits="userSpaceOnUse"
       id="clipPath7977">
      <path
         sodipodi:nodetypes="cscssccccssccccscccccccccccscsccccccccccccccscccccsccccccsccccccc"
         inkscape:connector-curvature="0"
         id="path7979"
         d="m 460.05558,75.525792 c 8.926,4.43534 6.35006,-7.69497 -2.23581,-14.09254 -11.41292,-8.50408 0.72354,-18.14783 10.39903,-22.05885 -14.81645,-3.28177 -12.1669,-9.57144 -5.1253,-17.98133 13.35331,-15.94805 21.89835,-14.1861 30.85186,-13.80553 32.08984,1.36401 43.90576,5.42009 66.08566,17.13306 14.18867,7.49288 28.16261,19.92443 41.71469,42.05889 3.57525,15.90593 34.49358,6.25383 58.3451,12.0033 28.45901,-9.77104 86.84374,4.33021 46.1275,43.660798 16.73128,4.49141 34.14205,2.05274 49.11368,7.57239 15.68592,5.783 26.36936,21.95927 44.66327,27.72508 18.60703,5.8645 54.36583,1.11107 86.49693,-1.37839 23.3662,-0.24469 37.8729,19.02665 50.6872,32.49949 19.8016,2.2754 31.474,-2.13779 40.1691,38.13167 6.4713,11.20951 8.12,20.66533 2.5084,27.48106 7.1984,10.101 13.3967,14.07984 12.2379,23.22574 -1.0647,8.40358 -6.6003,16.2962 -18.3396,23.47981 -18.2715,10.02027 -28.1507,4.09519 -35.5026,-6.63174 -32.2061,8.78536 -37.4929,16.50669 -54.3514,20.54296 -10.5469,17.32043 -11.9227,46.49374 -5.1892,68.88713 8.3126,17.02253 7.4097,53.84466 0.5831,59.47486 -12.8711,5.68402 -29.2313,12.06586 -34.9852,16.32644 -2.3402,15.57563 -3.7051,31.29059 4.6647,48.39621 4.6914,29.42399 -21.0938,39.45006 -37.02604,48.25045 -22.85478,6.19985 -43.24642,1.31554 -64.72265,1.31194 -10.01058,8.05665 -18.58768,16.83004 -27.07211,25.64976 -4.28974,23.21289 -30.74042,18.92958 -47.74239,23.05872 -21.48664,3.92179 -44.21042,-7.92703 -52.77047,-13.47161 -13.73729,-8.89801 -11.06065,-33.8059 -22.52758,-34.8569 -11.50094,9.06574 -28.12036,13.53949 -45.45656,15.32956 -18.09131,1.86803 -34.20981,3.36504 -47.86969,-7.54631 -4.53135,-6.92739 -15.25546,-12.16586 -25.65582,-17.49261 -14.71944,-5.69364 -31.62936,-2.62537 -43.41926,-20.03717 -21.70735,2.57809 -48.5411,12.63907 -56.65947,-1.50774 -8.58154,-14.48966 -19.46052,-24.5024 -28.75418,-41.42848 -7.16997,-11.23843 -4.41678,-23.88426 -0.61239,-37.31756 0.91262,-7.59682 -3.4502,-14.93869 -17.49261,-12.82791 -22.97097,-8.92484 -28.43591,-23.22293 -37.31756,-19.82496 -12.1625,7.53669 -14.26728,20.55941 -37.31756,22.15731 -2.32949,22.09851 2.99655,35.44783 8.16321,48.9793 -8.79904,13.28984 -19.70146,33.19891 -50.14547,22.76969 -16.14997,2.31679 -20.98022,17.04032 -58.30869,-9.32939 -12.19488,-7.65148 -27.54963,-10.78887 -32.65287,-28.57127 -25.96598,3.71357 -55.30226,-3.26503 -47.81313,-37.34686 3.62826,-7.42465 -5.23886,-9.7698 -9.84848,-22.76309 -3.30106,-9.30483 -2.4303,-29.18348 -2.39634,-36.71177 C 41.24901,346.66869 26.59427,329.16801 33.81904,319.83923 34.00699,305.96119 1.68248,296.39781 7.58013,275.52462 c 4.09011,-19.15371 3.55489,-39.28451 18.07569,-52.47782 24.09352,-14.85415 11.83539,-33.53479 8.16322,-51.31165 2.72814,-5.23242 5.53972,-9.96426 8.43549,-14.19089 7.83904,-11.44175 13.3797,-20.93049 22.46812,-24.87594 6.70244,-6.41896 23.94757,10.7217 39.06682,8.74631 12.22265,-0.64943 26.41789,-3.76459 28.13573,8.717 5.39377,8.2716 10.58833,8.52534 17.55727,6.03096 7.27287,-2.41613 0.17742,-14.27716 -7.20926,-24.07735 -4.94099,-14.58129 -3.29637,-28.28451 -0.0647,-41.776118 5.08042,-11.94021 1.63263,-29.69946 18.55102,-31.02632 7.19959,-0.56464 15.61512,6.7568 33.30835,8.80434 53.31229,-7.77622 55.48906,13.37949 69.48738,27.84669 17.33153,5.580228 22.64012,0.3706 29.70813,-3.26003 14.51228,14.712778 22.8389,16.495248 33.26526,14.047148 4.18941,-9.783038 11.43649,-17.272828 18.65878,-24.781198 15.92948,-20.25484 37.05526,-14.52816 58.30869,-8.16322 20.5396,-5.03844 38.21238,-0.52081 56.55943,1.74926 z"
         style="display:inline;opacity:0.95499998;fill:none;fill-rule:evenodd;stroke:#000000;stroke-width:15;stroke-linecap:butt;stroke-linejoin:round;stroke-miterlimit:4;stroke-dasharray:none;stroke-opacity:1" />
    </clipPath>
    <clipPath
       clipPathUnits="userSpaceOnUse"
       id="clipPath4692">
      <path
         style="display:inline;fill:none;fill-rule:evenodd;stroke:#000000;stroke-width:15;stroke-linecap:butt;stroke-linejoin:round;stroke-miterlimit:4;stroke-dasharray:none;stroke-opacity:1"
         d="m 460.05558,75.525792 c 8.926,4.435339 6.35006,-7.694972 -2.23581,-14.092542 -11.41292,-8.504083 0.72354,-18.147832 10.39903,-22.058848 -14.81645,-3.281774 -12.1669,-9.571442 -5.1253,-17.98133 13.35331,-15.9480486 21.89835,-14.1861033 30.85186,-13.8055278 32.08984,1.3640024 43.90576,5.4200878 66.08566,17.1330528 14.18867,7.492881 28.16261,19.924428 41.71469,42.058891 3.57525,15.905936 34.49358,6.253834 58.3451,12.003303 28.45901,-9.771038 86.84374,4.330209 46.1275,43.660789 16.73128,4.49141 34.14205,2.05274 49.11368,7.57239 15.68592,5.783 26.36936,21.95927 44.66327,27.72508 18.60705,5.8645 54.36588,1.11107 86.49695,-1.37839 23.36618,-0.24469 37.87289,19.02665 50.68713,32.49949 19.80169,2.2754 31.474,-2.13779 40.16919,38.13167 6.47128,11.20951 8.11993,20.66533 2.50833,27.48106 7.19839,10.101 13.39671,14.07984 12.23793,23.22574 -1.06472,8.40358 -6.60028,16.2962 -18.33962,23.47981 -18.27149,10.02027 -28.15068,4.09519 -35.50259,-6.63174 -32.20611,8.78536 -37.49293,16.50669 -54.3514,20.54296 -10.54689,17.32043 -11.92266,46.49374 -5.18918,68.88713 8.31261,17.02253 7.40972,53.84466 0.58308,59.47486 -12.87112,5.68402 -29.23133,12.06586 -34.98521,16.32644 -2.34019,15.57563 -3.70507,31.29059 4.6647,48.39621 4.69138,29.42399 -21.09381,39.45006 -37.02602,48.25045 -22.85478,6.19985 -43.24642,1.31554 -64.72265,1.31194 -10.01058,8.05665 -18.58768,16.83004 -27.07211,25.64976 -4.28974,23.21289 -30.74042,18.92958 -47.74239,23.05872 -21.48664,3.92179 -44.21042,-7.92703 -52.77047,-13.47161 -13.73729,-8.89801 -11.06065,-33.8059 -22.52758,-34.8569 -11.50094,9.06574 -28.12036,13.53949 -45.45656,15.32956 -18.09131,1.86803 -34.20981,3.36504 -47.86969,-7.54631 -4.53135,-6.92739 -15.25546,-12.16586 -25.65582,-17.49261 -14.71944,-5.69364 -31.62936,-2.62537 -43.41926,-20.03717 -21.70735,2.57809 -48.5411,12.63907 -56.65947,-1.50774 -8.58154,-14.48966 -19.46052,-24.5024 -28.75418,-41.42848 -7.16997,-11.23843 -4.41678,-23.88426 -0.61239,-37.31756 0.91262,-7.59682 -3.4502,-14.93869 -17.49261,-12.82791 -22.97097,-8.92484 -28.43591,-23.22293 -37.31756,-19.82496 -12.1625,7.53669 -14.26728,20.55941 -37.31756,22.15731 -2.32949,22.09851 2.99655,35.44783 8.16321,48.9793 -8.79904,13.28984 -19.70146,33.19891 -50.14547,22.76969 -16.14997,2.31679 -20.98022,17.04032 -58.30869,-9.32939 -12.19488,-7.65148 -27.54963,-10.78887 -32.65287,-28.57127 -25.965977,3.71357 -55.302264,-3.26503 -47.81313,-37.34686 3.628258,-7.42465 -5.238864,-9.7698 -9.848476,-22.76309 -3.301061,-9.30483 -2.430305,-29.18348 -2.396349,-36.71177 C 41.249011,346.66868 26.594271,329.168 33.819042,319.83922 34.006991,305.96118 1.682477,296.3978 7.58013,275.52461 11.670243,256.3709 11.135019,236.2401 25.655825,223.04679 49.749338,208.19264 37.491209,189.512 33.819042,171.73514 c 2.728142,-5.23242 5.539715,-9.96426 8.43549,-14.19089 7.839041,-11.44175 13.379693,-20.93049 22.468116,-24.87594 6.702438,-6.41896 23.947573,10.7217 39.066822,8.74631 12.22265,-0.64943 26.41789,-3.76459 28.13573,8.717 5.39377,8.2716 10.58833,8.52534 17.55727,6.03096 7.27287,-2.41613 0.17742,-14.27716 -7.20926,-24.07735 -4.94099,-14.58129 -3.29637,-28.28451 -0.0647,-41.776113 5.08042,-11.940206 1.63263,-29.699459 18.55102,-31.026314 7.19959,-0.56464 15.61512,6.756801 33.30835,8.804339 53.31229,-7.776225 55.48906,13.379485 69.48738,27.846692 17.33153,5.580216 22.64012,0.370601 29.70813,-3.260033 14.51228,14.712769 22.8389,16.495239 33.26526,14.047139 4.18941,-9.783033 11.43649,-17.272818 18.65878,-24.781192 15.92948,-20.254838 37.05526,-14.528155 58.30869,-8.163217 20.5396,-5.038445 38.21238,-0.520815 56.55943,1.749261 z"
         id="path4694"
         inkscape:connector-curvature="0"
         sodipodi:nodetypes="cscssccccssccccscccccccccccscsccccccccccccccscccccsccccccsccccccc" />
    </clipPath>
    <clipPath
       clipPathUnits="userSpaceOnUse"
       id="clipPath5426">
      <path
         sodipodi:nodetypes="cscssccccssccccscccccccccccscsccccccccccccccscccccsccccccsccccccc"
         inkscape:connector-curvature="0"
         id="path5428"
         d="m 460.05558,75.525792 c 8.926,4.435339 6.35006,-7.694972 -2.23581,-14.092542 -11.41292,-8.504083 0.72354,-18.147832 10.39903,-22.058848 -14.81645,-3.281774 -12.1669,-9.571442 -5.1253,-17.98133 13.35331,-15.9480486 21.89835,-14.1861033 30.85186,-13.8055278 32.08984,1.3640024 43.90576,5.4200878 66.08566,17.1330528 14.18867,7.492881 28.16261,19.924428 41.71469,42.058891 3.57525,15.905936 34.49358,6.253834 58.3451,12.003303 28.45901,-9.771038 86.84374,4.330209 46.1275,43.660789 16.73128,4.49141 34.14205,2.05274 49.11368,7.57239 15.68592,5.783 26.36936,21.95927 44.66327,27.72508 18.60705,5.8645 54.36588,1.11107 86.49695,-1.37839 23.36618,-0.24469 37.87289,19.02665 50.68713,32.49949 19.80169,2.2754 31.474,-2.13779 40.16919,38.13167 6.47128,11.20951 8.11993,20.66533 2.50833,27.48106 7.19839,10.101 13.39671,14.07984 12.23793,23.22574 -1.06472,8.40358 -6.60028,16.2962 -18.33962,23.47981 -18.27149,10.02027 -28.15068,4.09519 -35.50259,-6.63174 -32.20611,8.78536 -37.49293,16.50669 -54.3514,20.54296 -10.54689,17.32043 -11.92266,46.49374 -5.18918,68.88713 8.31261,17.02253 7.40972,53.84466 0.58308,59.47486 -12.87112,5.68402 -29.23133,12.06586 -34.98521,16.32644 -2.34019,15.57563 -3.70507,31.29059 4.6647,48.39621 4.69138,29.42399 -21.09381,39.45006 -37.02602,48.25045 -22.85478,6.19985 -43.24642,1.31554 -64.72265,1.31194 -10.01058,8.05665 -18.58768,16.83004 -27.07211,25.64976 -4.28974,23.21289 -30.74042,18.92958 -47.74239,23.05872 -21.48664,3.92179 -44.21042,-7.92703 -52.77047,-13.47161 -13.73729,-8.89801 -11.06065,-33.8059 -22.52758,-34.8569 -11.50094,9.06574 -28.12036,13.53949 -45.45656,15.32956 -18.09131,1.86803 -34.20981,3.36504 -47.86969,-7.54631 -4.53135,-6.92739 -15.25546,-12.16586 -25.65582,-17.49261 -14.71944,-5.69364 -31.62936,-2.62537 -43.41926,-20.03717 -21.70735,2.57809 -48.5411,12.63907 -56.65947,-1.50774 -8.58154,-14.48966 -19.46052,-24.5024 -28.75418,-41.42848 -7.16997,-11.23843 -4.41678,-23.88426 -0.61239,-37.31756 0.91262,-7.59682 -3.4502,-14.93869 -17.49261,-12.82791 -22.97097,-8.92484 -28.43591,-23.22293 -37.31756,-19.82496 -12.1625,7.53669 -14.26728,20.55941 -37.31756,22.15731 -2.32949,22.09851 2.99655,35.44783 8.16321,48.9793 -8.79904,13.28984 -19.70146,33.19891 -50.14547,22.76969 -16.14997,2.31679 -20.98022,17.04032 -58.30869,-9.32939 -12.19488,-7.65148 -27.54963,-10.78887 -32.65287,-28.57127 -25.965977,3.71357 -55.302264,-3.26503 -47.81313,-37.34686 3.628258,-7.42465 -5.238864,-9.7698 -9.848476,-22.76309 -3.301061,-9.30483 -2.430305,-29.18348 -2.396349,-36.71177 C 41.249011,346.66868 26.594271,329.168 33.819042,319.83922 34.006991,305.96118 1.682477,296.3978 7.58013,275.52461 11.670243,256.3709 11.135019,236.2401 25.655825,223.04679 49.749338,208.19264 37.491209,189.512 33.819042,171.73514 c 2.728142,-5.23242 5.539715,-9.96426 8.43549,-14.19089 7.839041,-11.44175 13.379693,-20.93049 22.468116,-24.87594 6.702438,-6.41896 23.947573,10.7217 39.066822,8.74631 12.22265,-0.64943 26.41789,-3.76459 28.13573,8.717 5.39377,8.2716 10.58833,8.52534 17.55727,6.03096 7.27287,-2.41613 0.17742,-14.27716 -7.20926,-24.07735 -4.94099,-14.58129 -3.29637,-28.28451 -0.0647,-41.776113 5.08042,-11.940206 1.63263,-29.699459 18.55102,-31.026314 7.19959,-0.56464 15.61512,6.756801 33.30835,8.804339 53.31229,-7.776225 55.48906,13.379485 69.48738,27.846692 17.33153,5.580216 22.64012,0.370601 29.70813,-3.260033 14.51228,14.712769 22.8389,16.495239 33.26526,14.047139 4.18941,-9.783033 11.43649,-17.272818 18.65878,-24.781192 15.92948,-20.254838 37.05526,-14.528155 58.30869,-8.163217 20.5396,-5.038445 38.21238,-0.520815 56.55943,1.749261 z"
         style="display:inline;fill:none;fill-rule:evenodd;stroke:#000000;stroke-width:15;stroke-linecap:butt;stroke-linejoin:round;stroke-miterlimit:4;stroke-dasharray:none;stroke-opacity:1" />
    </clipPath>
    <clipPath
       clipPathUnits="userSpaceOnUse"
       id="clipPath9790">
      <path
         style="display:inline;fill:none;fill-rule:evenodd;stroke:#000000;stroke-width:15;stroke-linecap:butt;stroke-linejoin:round;stroke-miterlimit:4;stroke-dasharray:none;stroke-opacity:1"
         d="m 460.05558,75.525792 c 8.926,4.435339 6.35006,-7.694972 -2.23581,-14.092542 -11.41292,-8.504083 0.72354,-18.147832 10.39903,-22.058848 -14.81645,-3.281774 -12.1669,-9.571442 -5.1253,-17.98133 13.35331,-15.9480486 21.89835,-14.1861033 30.85186,-13.8055278 32.08984,1.3640024 43.90576,5.4200878 66.08566,17.1330528 14.18867,7.492881 28.16261,19.924428 41.71469,42.058891 3.57525,15.905936 34.49358,6.253834 58.3451,12.003303 28.45901,-9.771038 86.84374,4.330209 46.1275,43.660789 16.73128,4.49141 34.14205,2.05274 49.11368,7.57239 15.68592,5.783 26.36936,21.95927 44.66327,27.72508 18.60705,5.8645 54.36588,1.11107 86.49695,-1.37839 23.36618,-0.24469 37.87289,19.02665 50.68713,32.49949 19.80169,2.2754 31.474,-2.13779 40.16919,38.13167 6.47128,11.20951 8.11993,20.66533 2.50833,27.48106 7.19839,10.101 13.39671,14.07984 12.23793,23.22574 -1.06472,8.40358 -6.60028,16.2962 -18.33962,23.47981 -18.27149,10.02027 -28.15068,4.09519 -35.50259,-6.63174 -32.20611,8.78536 -37.49293,16.50669 -54.3514,20.54296 -10.54689,17.32043 -11.92266,46.49374 -5.18918,68.88713 8.31261,17.02253 7.40972,53.84466 0.58308,59.47486 -12.87112,5.68402 -29.23133,12.06586 -34.98521,16.32644 -2.34019,15.57563 -3.70507,31.29059 4.6647,48.39621 4.69138,29.42399 -21.09381,39.45006 -37.02602,48.25045 -22.85478,6.19985 -43.24642,1.31554 -64.72265,1.31194 -10.01058,8.05665 -18.58768,16.83004 -27.07211,25.64976 -4.28974,23.21289 -30.74042,18.92958 -47.74239,23.05872 -21.48664,3.92179 -44.21042,-7.92703 -52.77047,-13.47161 -13.73729,-8.89801 -11.06065,-33.8059 -22.52758,-34.8569 -11.50094,9.06574 -28.12036,13.53949 -45.45656,15.32956 -18.09131,1.86803 -34.20981,3.36504 -47.86969,-7.54631 -4.53135,-6.92739 -15.25546,-12.16586 -25.65582,-17.49261 -14.71944,-5.69364 -31.62936,-2.62537 -43.41926,-20.03717 -21.70735,2.57809 -48.5411,12.63907 -56.65947,-1.50774 -8.58154,-14.48966 -19.46052,-24.5024 -28.75418,-41.42848 -7.16997,-11.23843 -4.41678,-23.88426 -0.61239,-37.31756 0.91262,-7.59682 -3.4502,-14.93869 -17.49261,-12.82791 -22.97097,-8.92484 -28.43591,-23.22293 -37.31756,-19.82496 -12.1625,7.53669 -14.26728,20.55941 -37.31756,22.15731 -2.32949,22.09851 2.99655,35.44783 8.16321,48.9793 -8.79904,13.28984 -19.70146,33.19891 -50.14547,22.76969 -16.14997,2.31679 -20.98022,17.04032 -58.30869,-9.32939 -12.19488,-7.65148 -27.54963,-10.78887 -32.65287,-28.57127 -25.965977,3.71357 -55.302264,-3.26503 -47.81313,-37.34686 3.628258,-7.42465 -5.238864,-9.7698 -9.848476,-22.76309 -3.301061,-9.30483 -2.430305,-29.18348 -2.396349,-36.71177 C 41.249011,346.66868 26.594271,329.168 33.819042,319.83922 34.006991,305.96118 1.682477,296.3978 7.58013,275.52461 11.670243,256.3709 11.135019,236.2401 25.655825,223.04679 49.749338,208.19264 37.491209,189.512 33.819042,171.73514 c 2.728142,-5.23242 5.539715,-9.96426 8.43549,-14.19089 7.839041,-11.44175 13.379693,-20.93049 22.468116,-24.87594 6.702438,-6.41896 23.947573,10.7217 39.066822,8.74631 12.22265,-0.64943 26.41789,-3.76459 28.13573,8.717 5.39377,8.2716 10.58833,8.52534 17.55727,6.03096 7.27287,-2.41613 0.17742,-14.27716 -7.20926,-24.07735 -4.94099,-14.58129 -3.29637,-28.28451 -0.0647,-41.776113 5.08042,-11.940206 1.63263,-29.699459 18.55102,-31.026314 7.19959,-0.56464 15.61512,6.756801 33.30835,8.804339 53.31229,-7.776225 55.48906,13.379485 69.48738,27.846692 17.33153,5.580216 22.64012,0.370601 29.70813,-3.260033 14.51228,14.712769 22.8389,16.495239 33.26526,14.047139 4.18941,-9.783033 11.43649,-17.272818 18.65878,-24.781192 15.92948,-20.254838 37.05526,-14.528155 58.30869,-8.163217 20.5396,-5.038445 38.21238,-0.520815 56.55943,1.749261 z"
         id="path9792"
         inkscape:connector-curvature="0"
         sodipodi:nodetypes="cscssccccssccccscccccccccccscsccccccccccccccscccccsccccccsccccccc" />
    </clipPath>
    <clipPath
       clipPathUnits="userSpaceOnUse"
       id="clipPath18082">
      <path
         style="display:inline;opacity:1;fill:none;fill-rule:evenodd;stroke:#000000;stroke-width:15;stroke-linecap:butt;stroke-linejoin:round;stroke-miterlimit:4;stroke-dasharray:none;stroke-opacity:1"
         d="m 460.05558,75.525792 c 8.926,4.435339 6.35006,-7.694972 -2.23581,-14.092542 -11.41292,-8.504083 0.72354,-18.147832 10.39903,-22.058848 -14.81645,-3.281774 -12.1669,-9.571442 -5.1253,-17.98133 13.35331,-15.9480486 21.89835,-14.1861033 30.85186,-13.8055278 32.08984,1.3640024 43.90576,5.4200878 66.08566,17.1330528 14.18867,7.492881 28.16261,19.924428 41.71469,42.058891 3.57525,15.905936 34.49358,6.253834 58.3451,12.003303 28.45901,-9.771038 86.84374,4.330209 46.1275,43.660789 16.73128,4.49141 34.14205,2.05274 49.11368,7.57239 15.68592,5.783 26.36936,21.95927 44.66327,27.72508 18.60705,5.8645 54.36588,1.11107 86.49695,-1.37839 23.36618,-0.24469 37.87289,19.02665 50.68713,32.49949 19.80169,2.2754 31.474,-2.13779 40.16919,38.13167 6.47128,11.20951 8.11993,20.66533 2.50833,27.48106 7.19839,10.101 13.39671,14.07984 12.23793,23.22574 -1.06472,8.40358 -6.60028,16.2962 -18.33962,23.47981 -18.27149,10.02027 -28.15068,4.09519 -35.50259,-6.63174 -32.20611,8.78536 -37.49293,16.50669 -54.3514,20.54296 -10.54689,17.32043 -11.92266,46.49374 -5.18918,68.88713 8.31261,17.02253 7.40972,53.84466 0.58308,59.47486 -12.87112,5.68402 -29.23133,12.06586 -34.98521,16.32644 -2.34019,15.57563 -3.70507,31.29059 4.6647,48.39621 4.69138,29.42399 -21.09381,39.45006 -37.02602,48.25045 -22.85478,6.19985 -43.24642,1.31554 -64.72265,1.31194 -10.01058,8.05665 -18.58768,16.83004 -27.07211,25.64976 -4.28974,23.21289 -30.74042,18.92958 -47.74239,23.05872 -21.48664,3.92179 -44.21042,-7.92703 -52.77047,-13.47161 -13.73729,-8.89801 -11.06065,-33.8059 -22.52758,-34.8569 -11.50094,9.06574 -28.12036,13.53949 -45.45656,15.32956 -18.09131,1.86803 -34.20981,3.36504 -47.86969,-7.54631 -4.53135,-6.92739 -15.25546,-12.16586 -25.65582,-17.49261 -14.71944,-5.69364 -31.62936,-2.62537 -43.41926,-20.03717 -21.70735,2.57809 -48.5411,12.63907 -56.65947,-1.50774 -8.58154,-14.48966 -19.46052,-24.5024 -28.75418,-41.42848 -7.16997,-11.23843 -4.41678,-23.88426 -0.61239,-37.31756 0.91262,-7.59682 -3.4502,-14.93869 -17.49261,-12.82791 -22.97097,-8.92484 -28.43591,-23.22293 -37.31756,-19.82496 -12.1625,7.53669 -14.26728,20.55941 -37.31756,22.15731 -2.32949,22.09851 2.99655,35.44783 8.16321,48.9793 -8.79904,13.28984 -19.70146,33.19891 -50.14547,22.76969 -16.14997,2.31679 -20.98022,17.04032 -58.30869,-9.32939 -12.19488,-7.65148 -27.54963,-10.78887 -32.65287,-28.57127 -25.965977,3.71357 -55.302264,-3.26503 -47.81313,-37.34686 3.628258,-7.42465 -5.238864,-9.7698 -9.848476,-22.76309 -3.301061,-9.30483 -2.430305,-29.18348 -2.396349,-36.71177 C 41.249011,346.66868 26.594271,329.168 33.819042,319.83922 34.006991,305.96118 1.682477,296.3978 7.58013,275.52461 11.670243,256.3709 11.135019,236.2401 25.655825,223.04679 49.749338,208.19264 37.491209,189.512 33.819042,171.73514 c 2.728142,-5.23242 5.539715,-9.96426 8.43549,-14.19089 7.839041,-11.44175 13.379693,-20.93049 22.468116,-24.87594 6.702438,-6.41896 23.947573,10.7217 39.066822,8.74631 12.22265,-0.64943 26.41789,-3.76459 28.13573,8.717 5.39377,8.2716 10.58833,8.52534 17.55727,6.03096 7.27287,-2.41613 0.17742,-14.27716 -7.20926,-24.07735 -4.94099,-14.58129 -3.29637,-28.28451 -0.0647,-41.776113 5.08042,-11.940206 1.63263,-29.699459 18.55102,-31.026314 7.19959,-0.56464 15.61512,6.756801 33.30835,8.804339 53.31229,-7.776225 55.48906,13.379485 69.48738,27.846692 17.33153,5.580216 22.64012,0.370601 29.70813,-3.260033 14.51228,14.712769 22.8389,16.495239 33.26526,14.047139 4.18941,-9.783033 11.43649,-17.272818 18.65878,-24.781192 15.92948,-20.254838 37.05526,-14.528155 58.30869,-8.163217 20.5396,-5.038445 38.21238,-0.520815 56.55943,1.749261 z"
         id="path18084"
         inkscape:connector-curvature="0"
         sodipodi:nodetypes="cscssccccssccccscccccccccccscsccccccccccccccscccccsccccccsccccccc" />
    </clipPath>
  </defs>
  <sodipodi:namedview
     id="base"
     pagecolor="#ffffff"
     bordercolor="#666666"
     borderopacity="1.0"
     inkscape:pageopacity="0.0"
     inkscape:pageshadow="2"
     inkscape:zoom="0.32849416"
     inkscape:cx="1031.7368"
     inkscape:cy="-183.25616"
     inkscape:document-units="px"
     inkscape:current-layer="g18100"
     showgrid="false"
     units="px"
     inkscape:window-width="1920"
     inkscape:window-height="1017"
     inkscape:window-x="-8"
     inkscape:window-y="-8"
     inkscape:window-maximized="1"
     showguides="true"
     inkscape:object-paths="true"
     inkscape:snap-intersection-paths="true"
     inkscape:object-nodes="true"
     inkscape:snap-smooth-nodes="true"
     inkscape:snap-global="false" />
  <metadata
     id="metadata3389">
    <rdf:RDF>
      <cc:Work
         rdf:about="">
        <dc:format>image/svg+xml</dc:format>
        <dc:type
           rdf:resource="http://purl.org/dc/dcmitype/StillImage" />
        <dc:title>NERD Caso 2</dc:title>
        <dc:creator>
          <cc:Agent>
            <dc:title>Luis Navarro</dc:title>
          </cc:Agent>
        </dc:creator>
        <dc:subject>
          <rdf:Bag>
            <rdf:li>NERD map island</rdf:li>
          </rdf:Bag>
        </dc:subject>
      </cc:Work>
    </rdf:RDF>
  </metadata>
  <g
     inkscape:groupmode="layer"
     id="g18100"
     inkscape:label="base_blanca"
     style="display:inline">
    <path
       sodipodi:nodetypes="cscssccccssccccscccccccccccscsccccccccccccccscccccsccccccsccccccc"
       inkscape:connector-curvature="0"
       id="path18102"
       d="m 460.05558,75.525792 c 8.926,4.435339 6.35006,-7.694972 -2.23581,-14.092542 -11.41292,-8.504083 0.72354,-18.147832 10.39903,-22.058848 -14.81645,-3.281774 -12.1669,-9.571442 -5.1253,-17.98133 13.35331,-15.9480486 21.89835,-14.1861033 30.85186,-13.8055278 32.08984,1.3640024 43.90576,5.4200878 66.08566,17.1330528 14.18867,7.492881 28.16261,19.924428 41.71469,42.058891 3.57525,15.905936 34.49358,6.253834 58.3451,12.003303 28.45901,-9.771038 86.84374,4.330209 46.1275,43.660789 16.73128,4.49141 34.14205,2.05274 49.11368,7.57239 15.68592,5.783 26.36936,21.95927 44.66327,27.72508 18.60705,5.8645 54.36588,1.11107 86.49695,-1.37839 23.36618,-0.24469 37.87289,19.02665 50.68713,32.49949 19.80169,2.2754 31.474,-2.13779 40.16919,38.13167 6.47128,11.20951 8.11993,20.66533 2.50833,27.48106 7.19839,10.101 13.39671,14.07984 12.23793,23.22574 -1.06472,8.40358 -6.60028,16.2962 -18.33962,23.47981 -18.27149,10.02027 -28.15068,4.09519 -35.50259,-6.63174 -32.20611,8.78536 -37.49293,16.50669 -54.3514,20.54296 -10.54689,17.32043 -11.92266,46.49374 -5.18918,68.88713 8.31261,17.02253 7.40972,53.84466 0.58308,59.47486 -12.87112,5.68402 -29.23133,12.06586 -34.98521,16.32644 -2.34019,15.57563 -3.70507,31.29059 4.6647,48.39621 4.69138,29.42399 -21.09381,39.45006 -37.02602,48.25045 -22.85478,6.19985 -43.24642,1.31554 -64.72265,1.31194 -10.01058,8.05665 -18.58768,16.83004 -27.07211,25.64976 -4.28974,23.21289 -30.74042,18.92958 -47.74239,23.05872 -21.48664,3.92179 -44.21042,-7.92703 -52.77047,-13.47161 -13.73729,-8.89801 -11.06065,-33.8059 -22.52758,-34.8569 -11.50094,9.06574 -28.12036,13.53949 -45.45656,15.32956 -18.09131,1.86803 -34.20981,3.36504 -47.86969,-7.54631 -4.53135,-6.92739 -15.25546,-12.16586 -25.65582,-17.49261 -14.71944,-5.69364 -31.62936,-2.62537 -43.41926,-20.03717 -21.70735,2.57809 -48.5411,12.63907 -56.65947,-1.50774 -8.58154,-14.48966 -19.46052,-24.5024 -28.75418,-41.42848 -7.16997,-11.23843 -4.41678,-23.88426 -0.61239,-37.31756 0.91262,-7.59682 -3.4502,-14.93869 -17.49261,-12.82791 -22.97097,-8.92484 -28.43591,-23.22293 -37.31756,-19.82496 -12.1625,7.53669 -14.26728,20.55941 -37.31756,22.15731 -2.32949,22.09851 2.99655,35.44783 8.16321,48.9793 -8.79904,13.28984 -19.70146,33.19891 -50.14547,22.76969 -16.14997,2.31679 -20.98022,17.04032 -58.30869,-9.32939 -12.19488,-7.65148 -27.54963,-10.78887 -32.65287,-28.57127 -25.965977,3.71357 -55.302264,-3.26503 -47.81313,-37.34686 3.628258,-7.42465 -5.238864,-9.7698 -9.848476,-22.76309 -3.301061,-9.30483 -2.430305,-29.18348 -2.396349,-36.71177 C 41.249011,346.66868 26.594271,329.168 33.819042,319.83922 34.006991,305.96118 1.682477,296.3978 7.58013,275.52461 11.670243,256.3709 11.135019,236.2401 25.655825,223.04679 49.749338,208.19264 37.491209,189.512 33.819042,171.73514 c 2.728142,-5.23242 5.539715,-9.96426 8.43549,-14.19089 7.839041,-11.44175 13.379693,-20.93049 22.468116,-24.87594 6.702438,-6.41896 23.947573,10.7217 39.066822,8.74631 12.22265,-0.64943 26.41789,-3.76459 28.13573,8.717 5.39377,8.2716 10.58833,8.52534 17.55727,6.03096 7.27287,-2.41613 0.17742,-14.27716 -7.20926,-24.07735 -4.94099,-14.58129 -3.29637,-28.28451 -0.0647,-41.776113 5.08042,-11.940206 1.63263,-29.699459 18.55102,-31.026314 7.19959,-0.56464 15.61512,6.756801 33.30835,8.804339 53.31229,-7.776225 55.48906,13.379485 69.48738,27.846692 17.33153,5.580216 22.64012,0.370601 29.70813,-3.260033 14.51228,14.712769 22.8389,16.495239 33.26526,14.047139 4.18941,-9.783033 11.43649,-17.272818 18.65878,-24.781192 15.92948,-20.254838 37.05526,-14.528155 58.30869,-8.163217 20.5396,-5.038445 38.21238,-0.520815 56.55943,1.749261 z"
       style="display:inline;fill:#ffffff;fill-opacity:1;fill-rule:evenodd;stroke:none;stroke-width:15;stroke-linecap:butt;stroke-linejoin:round;stroke-miterlimit:4;stroke-dasharray:none;stroke-opacity:1" />
  </g>
  <g
     style="display:inline"
     inkscape:label="franjas"
     id="g5812"
     inkscape:groupmode="layer">
    <g
       id="g6045"
       clip-path="url(#clipPath6069)">
      <rect
         y="81.810371"
         x="-10.684905"
         height="90.018837"
         width="1082.8148"
         id="rect5834"
         style="opacity:1;fill:#299129;fill-opacity:1;stroke:none;stroke-width:3.50877428;stroke-linecap:round;stroke-linejoin:round;stroke-miterlimit:10;stroke-dasharray:none;stroke-opacity:1;filter:url(#filter4149)" />
      <rect
         transform="scale(-1,1)"
         style="opacity:1;fill:#299129;fill-opacity:0.67857139;stroke:none;stroke-width:3.50877428;stroke-linecap:round;stroke-linejoin:round;stroke-miterlimit:10;stroke-dasharray:none;stroke-opacity:1;filter:url(#filter4149)"
         id="rect5836"
         width="1082.8148"
         height="90.018837"
         x="-1035.0367"
         y="-8.2084284" />
      <rect
         style="opacity:1;fill:#299129;fill-opacity:0.51190479;stroke:none;stroke-width:3.50877428;stroke-linecap:round;stroke-linejoin:round;stroke-miterlimit:10;stroke-dasharray:none;stroke-opacity:1;filter:url(#filter4149)"
         id="rect5838"
         width="1082.8148"
         height="90.018837"
         x="-72.129921"
         y="171.82922" />
      <rect
         transform="scale(-1,1)"
         y="351.86691"
         x="-1013.7371"
         height="90.018837"
         width="1082.8148"
         id="rect5840"
         style="opacity:1;fill:#299129;fill-opacity:0.89880958;stroke:none;stroke-width:3.50877428;stroke-linecap:round;stroke-linejoin:round;stroke-miterlimit:10;stroke-dasharray:none;stroke-opacity:1;filter:url(#filter4149)" />
      <rect
         style="opacity:1;fill:#299129;fill-opacity:0.74404764;stroke:none;stroke-width:3.50877428;stroke-linecap:round;stroke-linejoin:round;stroke-miterlimit:10;stroke-dasharray:none;stroke-opacity:1;filter:url(#filter4149)"
         id="rect5842"
         width="1082.8148"
         height="90.018837"
         x="-69.077614"
         y="261.84818" />
      <rect
         style="opacity:1;fill:#299129;fill-opacity:0.68452382;stroke:none;stroke-width:3.50877428;stroke-linecap:round;stroke-linejoin:round;stroke-miterlimit:10;stroke-dasharray:none;stroke-opacity:1;filter:url(#filter4149)"
         id="rect5844"
         width="1082.8148"
         height="90.018837"
         x="-31.984648"
         y="531.9046" />
      <rect
         y="441.88577"
         x="-1013.7371"
         height="90.018837"
         width="1082.8148"
         id="rect5846"
         style="opacity:1;fill:#299129;fill-opacity:0.5;stroke:none;stroke-width:3.50877428;stroke-linecap:round;stroke-linejoin:round;stroke-miterlimit:10;stroke-dasharray:none;stroke-opacity:1;filter:url(#filter4149)"
         transform="scale(-1,1)" />
    </g>
  </g>
  <g
     inkscape:label="isla"
     id="g5848"
     inkscape:groupmode="layer"
     style="display:inline">
    <path
       sodipodi:nodetypes="cscssccccssccccscccccccccccscsccccccccccccccscccccsccccccsccccccc"
       inkscape:connector-curvature="0"
       id="path5850"
       d="m 460.05558,75.525792 c 8.926,4.435339 6.35006,-7.694972 -2.23581,-14.092542 -11.41292,-8.504083 0.72354,-18.147832 10.39903,-22.058848 -14.81645,-3.281774 -12.1669,-9.571442 -5.1253,-17.98133 13.35331,-15.9480486 21.89835,-14.1861033 30.85186,-13.8055278 32.08984,1.3640024 43.90576,5.4200878 66.08566,17.1330528 14.18867,7.492881 28.16261,19.924428 41.71469,42.058891 3.57525,15.905936 34.49358,6.253834 58.3451,12.003303 28.45901,-9.771038 86.84374,4.330209 46.1275,43.660789 16.73128,4.49141 34.14205,2.05274 49.11368,7.57239 15.68592,5.783 26.36936,21.95927 44.66327,27.72508 18.60705,5.8645 54.36588,1.11107 86.49695,-1.37839 23.36618,-0.24469 37.87289,19.02665 50.68713,32.49949 19.80169,2.2754 31.474,-2.13779 40.16919,38.13167 6.47128,11.20951 8.11993,20.66533 2.50833,27.48106 7.19839,10.101 13.39671,14.07984 12.23793,23.22574 -1.06472,8.40358 -6.60028,16.2962 -18.33962,23.47981 -18.27149,10.02027 -28.15068,4.09519 -35.50259,-6.63174 -32.20611,8.78536 -37.49293,16.50669 -54.3514,20.54296 -10.54689,17.32043 -11.92266,46.49374 -5.18918,68.88713 8.31261,17.02253 7.40972,53.84466 0.58308,59.47486 -12.87112,5.68402 -29.23133,12.06586 -34.98521,16.32644 -2.34019,15.57563 -3.70507,31.29059 4.6647,48.39621 4.69138,29.42399 -21.09381,39.45006 -37.02602,48.25045 -22.85478,6.19985 -43.24642,1.31554 -64.72265,1.31194 -10.01058,8.05665 -18.58768,16.83004 -27.07211,25.64976 -4.28974,23.21289 -30.74042,18.92958 -47.74239,23.05872 -21.48664,3.92179 -44.21042,-7.92703 -52.77047,-13.47161 -13.73729,-8.89801 -11.06065,-33.8059 -22.52758,-34.8569 -11.50094,9.06574 -28.12036,13.53949 -45.45656,15.32956 -18.09131,1.86803 -34.20981,3.36504 -47.86969,-7.54631 -4.53135,-6.92739 -15.25546,-12.16586 -25.65582,-17.49261 -14.71944,-5.69364 -31.62936,-2.62537 -43.41926,-20.03717 -21.70735,2.57809 -48.5411,12.63907 -56.65947,-1.50774 -8.58154,-14.48966 -19.46052,-24.5024 -28.75418,-41.42848 -7.16997,-11.23843 -4.41678,-23.88426 -0.61239,-37.31756 0.91262,-7.59682 -3.4502,-14.93869 -17.49261,-12.82791 -22.97097,-8.92484 -28.43591,-23.22293 -37.31756,-19.82496 -12.1625,7.53669 -14.26728,20.55941 -37.31756,22.15731 -2.32949,22.09851 2.99655,35.44783 8.16321,48.9793 -8.79904,13.28984 -19.70146,33.19891 -50.14547,22.76969 -16.14997,2.31679 -20.98022,17.04032 -58.30869,-9.32939 -12.19488,-7.65148 -27.54963,-10.78887 -32.65287,-28.57127 -25.965977,3.71357 -55.302264,-3.26503 -47.81313,-37.34686 3.628258,-7.42465 -5.238864,-9.7698 -9.848476,-22.76309 -3.301061,-9.30483 -2.430305,-29.18348 -2.396349,-36.71177 C 41.249011,346.66868 26.594271,329.168 33.819042,319.83922 34.006991,305.96118 1.682477,296.3978 7.58013,275.52461 11.670243,256.3709 11.135019,236.2401 25.655825,223.04679 49.749338,208.19264 37.491209,189.512 33.819042,171.73514 c 2.728142,-5.23242 5.539715,-9.96426 8.43549,-14.19089 7.839041,-11.44175 13.379693,-20.93049 22.468116,-24.87594 6.702438,-6.41896 23.947573,10.7217 39.066822,8.74631 12.22265,-0.64943 26.41789,-3.76459 28.13573,8.717 5.39377,8.2716 10.58833,8.52534 17.55727,6.03096 7.27287,-2.41613 0.17742,-14.27716 -7.20926,-24.07735 -4.94099,-14.58129 -3.29637,-28.28451 -0.0647,-41.776113 5.08042,-11.940206 1.63263,-29.699459 18.55102,-31.026314 7.19959,-0.56464 15.61512,6.756801 33.30835,8.804339 53.31229,-7.776225 55.48906,13.379485 69.48738,27.846692 17.33153,5.580216 22.64012,0.370601 29.70813,-3.260033 14.51228,14.712769 22.8389,16.495239 33.26526,14.047139 4.18941,-9.783033 11.43649,-17.272818 18.65878,-24.781192 15.92948,-20.254838 37.05526,-14.528155 58.30869,-8.163217 20.5396,-5.038445 38.21238,-0.520815 56.55943,1.749261 z"
       style="display:inline;fill:none;fill-rule:evenodd;stroke:#000000;stroke-width:15;stroke-linecap:butt;stroke-linejoin:round;stroke-miterlimit:4;stroke-dasharray:none;stroke-opacity:1" />
  </g>
</svg>
